<?xml version="1.0" encoding="UTF-8" standalone="no"?>
<!-- Created with Inkscape (http://www.inkscape.org/) -->

<svg
   width="100mm"
   height="100mm"
   viewBox="0 0 100 100"
   version="1.1"
   id="svg5"
   xml:space="preserve"
   inkscape:version="1.3.2 (091e20e, 2023-11-25, custom)"
   sodipodi:docname="copy.svg"
   xmlns:inkscape="http://www.inkscape.org/namespaces/inkscape"
   xmlns:sodipodi="http://sodipodi.sourceforge.net/DTD/sodipodi-0.dtd"
   xmlns="http://www.w3.org/2000/svg"
   xmlns:svg="http://www.w3.org/2000/svg"><sodipodi:namedview
     id="namedview7"
     pagecolor="#ffffff"
     bordercolor="#666666"
     borderopacity="1.0"
     inkscape:showpageshadow="2"
     inkscape:pageopacity="0.0"
     inkscape:pagecheckerboard="0"
     inkscape:deskcolor="#d1d1d1"
     inkscape:document-units="mm"
     showgrid="false"
     showguides="true"
     inkscape:zoom="1.1893044"
     inkscape:cx="39.518899"
     inkscape:cy="161.85932"
     inkscape:window-width="1920"
     inkscape:window-height="1137"
     inkscape:window-x="-8"
     inkscape:window-y="-8"
     inkscape:window-maximized="1"
     inkscape:current-layer="layer1"><sodipodi:guide
       position="5.7086283,46.607445"
       orientation="1,0"
       id="guide304"
       inkscape:locked="false" /><sodipodi:guide
       position="94.291371,27.030175"
       orientation="1,0"
       id="guide306"
       inkscape:locked="false" /><sodipodi:guide
       position="65.101986,7.4528449"
       orientation="0,-1"
       id="guide308"
       inkscape:locked="false" /><sodipodi:guide
       position="53.837492,92.436054"
       orientation="0,-1"
       id="guide310"
       inkscape:locked="false" /><sodipodi:guide
       position="55.840302,14.660224"
       orientation="0,-1"
       id="guide312"
       inkscape:locked="false" /><sodipodi:guide
       position="59.399216,85.383395"
       orientation="0,-1"
       id="guide314"
       inkscape:locked="false" /></sodipodi:namedview><defs
     id="defs2" /><g
     inkscape:label="Слой 1"
     inkscape:groupmode="layer"
     id="layer1"><path
       style="fill:#000000;stroke-width:0.499395"
       d="M 19.879556,92.761994 C 18.155053,92.50744 17.012052,92.036559 15.608378,91.002404 14.577162,90.242656 13.618803,88.829642 13.103433,87.309113 L 12.739309,86.234812 12.702659,61.328015 C 12.661509,33.380432 12.598093,35.295044 13.6351,33.184581 c 0.773033,-1.57324 1.787408,-2.566835 3.421015,-3.350924 0.677997,-0.325419 1.530016,-0.664812 1.893377,-0.754207 0.4658,-0.114589 2.774866,-0.178975 7.828796,-0.218281 l 7.168139,-0.05574 v 5.360438 5.360439 H 28.595098 23.243769 V 60.86556 82.204802 H 39.297756 55.351743 V 79.56218 76.919545 h 5.294125 5.294127 l -0.0447,4.789763 c -0.04329,4.637741 -0.05458,4.817032 -0.355179,5.648621 -0.976443,2.701204 -2.805054,4.378854 -5.65618,5.189226 l -1.03069,0.292954 -19.093014,0.01908 c -10.501153,0.01085 -19.447449,-0.03324 -19.880655,-0.09716 z M 45.518107,71.236212 C 42.553694,70.442206 40.574718,68.539232 39.67226,65.614886 39.440751,64.864705 39.429886,63.692222 39.429886,39.460233 v -25.36926 l 0.373092,-1.055785 c 0.806383,-2.281926 1.924197,-3.5698881 3.994588,-4.6026156 1.825623,-0.910635 1.574586,-0.8958136 14.461069,-0.8537689 l 11.561513,0.037726 0.88247,0.3435422 c 0.485358,0.1889497 1.198868,0.5411743 1.585579,0.7827231 0.418957,0.2616924 3.203004,2.9263042 6.888891,6.5933642 6.561025,6.527512 7.208377,7.273349 7.783619,8.967799 l 0.300808,0.88607 0.03695,19.357278 c 0.04145,21.713903 0.0917,20.482972 -0.922736,22.594495 -0.902307,1.87813 -2.525252,3.226771 -4.795855,3.985292 l -0.92492,0.308992 -17.111038,0.02262 c -16.286308,0.02153 -17.155128,0.01086 -18.025792,-0.22243 z"
       id="path1" /></g></svg>
