<?xml version="1.0" encoding="UTF-8" standalone="no"?>
<svg
   sodipodi:docname="logo.svg"
   inkscape:version="1.3.2 (091e20e, 2023-11-25, custom)"
   id="svg936"
   version="1.1"
   viewBox="0 0 40 40"
   height="40mm"
   width="40mm"
   inkscape:export-filename="logo.png"
   inkscape:export-xdpi="188.9"
   inkscape:export-ydpi="188.9"
   xmlns:inkscape="http://www.inkscape.org/namespaces/inkscape"
   xmlns:sodipodi="http://sodipodi.sourceforge.net/DTD/sodipodi-0.dtd"
   xmlns:xlink="http://www.w3.org/1999/xlink"
   xmlns="http://www.w3.org/2000/svg"
   xmlns:svg="http://www.w3.org/2000/svg"
   xmlns:rdf="http://www.w3.org/1999/02/22-rdf-syntax-ns#"
   xmlns:cc="http://creativecommons.org/ns#"
   xmlns:dc="http://purl.org/dc/elements/1.1/">
  <defs
     id="defs930">
    <inkscape:path-effect
       effect="copy_rotate"
       starting_point="36.997043,326.3416"
       origin="-63.002957,326.3416"
       id="path-effect3439"
       is_visible="true"
       lpeversion="1"
       method="normal"
       num_copies="12"
       starting_angle="0"
       rotation_angle="30"
       gap="-0.01"
       copies_to_360="true"
       mirror_copies="false"
       split_items="false"
       lpesatellites=""
       link_styles="false" />
    <inkscape:path-effect
       effect="copy_rotate"
       starting_point="36.997043,326.3416"
       origin="-63.002957,326.3416"
       id="path-effect3437"
       is_visible="true"
       lpeversion="1"
       method="normal"
       num_copies="15"
       starting_angle="0"
       rotation_angle="24"
       gap="-0.01"
       copies_to_360="true"
       mirror_copies="false"
       split_items="false"
       lpesatellites=""
       link_styles="false" />
    <inkscape:path-effect
       split_items="false"
       mirror_copies="false"
       copies_to_360="true"
       gap="-0.01"
       rotation_angle="15.652174"
       starting_angle="0"
       num_copies="23"
       method="normal"
       lpeversion="1"
       is_visible="true"
       id="path-effect3435"
       origin="-63.002957,326.3416"
       starting_point="36.997043,326.3416"
       effect="copy_rotate"
       lpesatellites=""
       link_styles="false" />
    <rect
       x="-575.85895"
       y="-221.88716"
       width="149.29675"
       height="27.876211"
       id="rect3218" />
    <rect
       x="-584.63708"
       y="-221.06737"
       width="17.025068"
       height="14.967093"
       id="rect3212" />
    <linearGradient
       inkscape:collect="always"
       id="linearGradient3177">
      <stop
         style="stop-color:#12229e;stop-opacity:1"
         offset="0"
         id="stop3173" />
      <stop
         style="stop-color:#36a8e1;stop-opacity:1"
         offset="1"
         id="stop3175" />
    </linearGradient>
    <linearGradient
       inkscape:collect="always"
       id="linearGradient2857">
      <stop
         style="stop-color:#420d0d;stop-opacity:1"
         offset="0"
         id="stop2853" />
      <stop
         style="stop-color:#b40a0a;stop-opacity:1"
         offset="0.49825764"
         id="stop2859" />
      <stop
         style="stop-color:#660000;stop-opacity:1"
         offset="1"
         id="stop2855" />
    </linearGradient>
    <linearGradient
       inkscape:collect="always"
       id="linearGradient2742-3">
      <stop
         style="stop-color:#420d0d;stop-opacity:1"
         offset="0"
         id="stop2738" />
      <stop
         style="stop-color:#a20000;stop-opacity:1"
         offset="1"
         id="stop2740" />
    </linearGradient>
    <inkscape:path-effect
       effect="copy_rotate"
       starting_point="36.997043,326.3416"
       origin="-63.002957,326.3416"
       id="path-effect2676"
       is_visible="true"
       lpeversion="1"
       method="normal"
       num_copies="15"
       starting_angle="0"
       rotation_angle="24"
       gap="-0.01"
       copies_to_360="true"
       mirror_copies="false"
       split_items="false"
       lpesatellites=""
       link_styles="false" />
    <inkscape:path-effect
       split_items="false"
       mirror_copies="false"
       copies_to_360="true"
       gap="-0.01"
       rotation_angle="15.652174"
       starting_angle="0"
       num_copies="23"
       method="normal"
       lpeversion="1"
       is_visible="true"
       id="path-effect2674"
       origin="-63.002957,326.3416"
       starting_point="36.997043,326.3416"
       effect="copy_rotate"
       lpesatellites=""
       link_styles="false" />
    <inkscape:path-effect
       effect="copy_rotate"
       starting_point="36.997043,326.3416"
       origin="-63.002957,326.3416"
       id="path-effect2344"
       is_visible="true"
       lpeversion="1"
       method="normal"
       num_copies="15"
       starting_angle="0"
       rotation_angle="24"
       gap="-0.01"
       copies_to_360="true"
       mirror_copies="false"
       split_items="false"
       lpesatellites=""
       link_styles="false" />
    <inkscape:path-effect
       split_items="false"
       mirror_copies="false"
       copies_to_360="true"
       gap="-0.01"
       rotation_angle="15.652174"
       starting_angle="0"
       num_copies="23"
       method="normal"
       lpeversion="1"
       is_visible="true"
       id="path-effect2342"
       origin="-63.002957,326.3416"
       starting_point="36.997043,326.3416"
       effect="copy_rotate"
       lpesatellites=""
       link_styles="false" />
    <inkscape:path-effect
       effect="simplify"
       id="path-effect2120"
       is_visible="true"
       lpeversion="1"
       steps="1"
       threshold="0.00114754"
       smooth_angles="360"
       helper_size="0"
       simplify_individual_paths="false"
       simplify_just_coalesce="false" />
    <inkscape:path-effect
       effect="simplify"
       id="path-effect2116"
       is_visible="true"
       lpeversion="1"
       steps="1"
       threshold="0.00035533"
       smooth_angles="360"
       helper_size="0"
       simplify_individual_paths="false"
       simplify_just_coalesce="false" />
    <inkscape:path-effect
       effect="simplify"
       id="path-effect2112"
       is_visible="true"
       lpeversion="1"
       steps="1"
       threshold="0.00035533"
       smooth_angles="360"
       helper_size="0"
       simplify_individual_paths="false"
       simplify_just_coalesce="false" />
    <inkscape:path-effect
       effect="simplify"
       id="path-effect1942"
       is_visible="true"
       lpeversion="1"
       steps="1"
       threshold="0.00035533"
       smooth_angles="360"
       helper_size="0"
       simplify_individual_paths="false"
       simplify_just_coalesce="false" />
    <inkscape:path-effect
       effect="simplify"
       id="path-effect1832"
       is_visible="true"
       lpeversion="1"
       steps="1"
       threshold="0.00035533"
       smooth_angles="360"
       helper_size="0"
       simplify_individual_paths="false"
       simplify_just_coalesce="false" />
    <inkscape:path-effect
       effect="powerstroke"
       id="path-effect1826"
       is_visible="true"
       lpeversion="1"
       offset_points="2.152399,0.13360669"
       sort_points="true"
       interpolator_type="CentripetalCatmullRom"
       interpolator_beta="0.75"
       start_linecap_type="zerowidth"
       linejoin_type="spiro"
       miter_limit="4"
       scale_width="1"
       end_linecap_type="zerowidth"
       not_jump="false"
       message="&lt;b&gt;Ctrl + клацніть&lt;/b&gt; на наявному вузлі і пересуньте його" />
    <inkscape:path-effect
       effect="simplify"
       id="path-effect1824"
       is_visible="true"
       lpeversion="1"
       steps="1"
       threshold="0.0031393987"
       smooth_angles="0"
       helper_size="0"
       simplify_individual_paths="false"
       simplify_just_coalesce="false"
       step="1" />
    <linearGradient
       inkscape:collect="always"
       id="linearGradient1698">
      <stop
         style="stop-color:#420d0d;stop-opacity:1"
         offset="0"
         id="stop1694" />
      <stop
         style="stop-color:#710000;stop-opacity:1"
         offset="1"
         id="stop1696" />
    </linearGradient>
    <inkscape:path-effect
       effect="powerstroke"
       id="path-effect1448"
       is_visible="true"
       lpeversion="1"
       offset_points="1.9490807,0.75579357"
       sort_points="true"
       interpolator_type="CentripetalCatmullRom"
       interpolator_beta="0.75"
       start_linecap_type="zerowidth"
       linejoin_type="spiro"
       miter_limit="4"
       scale_width="1"
       end_linecap_type="zerowidth"
       not_jump="false"
       message="&lt;b&gt;Ctrl + клацніть&lt;/b&gt; на наявному вузлі і пересуньте його" />
    <inkscape:path-effect
       effect="simplify"
       id="path-effect1446"
       is_visible="true"
       lpeversion="1"
       steps="1"
       threshold="0.0031393987"
       smooth_angles="0"
       helper_size="0"
       simplify_individual_paths="false"
       simplify_just_coalesce="false"
       step="1" />
    <inkscape:path-effect
       effect="powerstroke"
       id="path-effect1441"
       is_visible="true"
       lpeversion="1"
       offset_points="1,0.5"
       sort_points="true"
       interpolator_type="CentripetalCatmullRom"
       interpolator_beta="0.75"
       start_linecap_type="zerowidth"
       linejoin_type="spiro"
       miter_limit="4"
       scale_width="1"
       end_linecap_type="zerowidth"
       not_jump="false"
       message="&lt;b&gt;Ctrl + клацніть&lt;/b&gt; на наявному вузлі і пересуньте його" />
    <inkscape:path-effect
       effect="simplify"
       id="path-effect1439"
       is_visible="true"
       lpeversion="1"
       steps="1"
       threshold="0.0031393987"
       smooth_angles="0"
       helper_size="0"
       simplify_individual_paths="false"
       simplify_just_coalesce="false"
       step="1" />
    <inkscape:path-effect
       effect="powerstroke"
       id="path-effect1434"
       is_visible="true"
       lpeversion="1"
       offset_points="3.0604747,0.75579357"
       sort_points="true"
       interpolator_type="CentripetalCatmullRom"
       interpolator_beta="0.75"
       start_linecap_type="zerowidth"
       linejoin_type="spiro"
       miter_limit="4"
       scale_width="1"
       end_linecap_type="zerowidth"
       not_jump="false"
       message="&lt;b&gt;Ctrl + клацніть&lt;/b&gt; на наявному вузлі і пересуньте його" />
    <inkscape:path-effect
       effect="simplify"
       id="path-effect1432"
       is_visible="true"
       lpeversion="1"
       steps="1"
       threshold="0.0031393987"
       smooth_angles="0"
       helper_size="0"
       simplify_individual_paths="false"
       simplify_just_coalesce="false"
       step="1" />
    <inkscape:path-effect
       effect="powerstroke"
       id="path-effect1427"
       is_visible="true"
       lpeversion="1"
       offset_points="3.3727266,0.75579357"
       sort_points="true"
       interpolator_type="CentripetalCatmullRom"
       interpolator_beta="0.75"
       start_linecap_type="zerowidth"
       linejoin_type="spiro"
       miter_limit="4"
       scale_width="1"
       end_linecap_type="zerowidth"
       not_jump="false"
       message="&lt;b&gt;Ctrl + клацніть&lt;/b&gt; на наявному вузлі і пересуньте його" />
    <inkscape:path-effect
       effect="simplify"
       id="path-effect1425"
       is_visible="true"
       lpeversion="1"
       steps="1"
       threshold="0.0031393987"
       smooth_angles="0"
       helper_size="0"
       simplify_individual_paths="false"
       simplify_just_coalesce="false"
       step="1" />
    <inkscape:path-effect
       effect="powerstroke"
       id="path-effect1420"
       is_visible="true"
       lpeversion="1"
       offset_points="5.4139301,0.75579357"
       sort_points="true"
       interpolator_type="CentripetalCatmullRom"
       interpolator_beta="0.75"
       start_linecap_type="zerowidth"
       linejoin_type="spiro"
       miter_limit="4"
       scale_width="1"
       end_linecap_type="zerowidth"
       not_jump="false"
       message="&lt;b&gt;Ctrl + клацніть&lt;/b&gt; на наявному вузлі і пересуньте його" />
    <inkscape:path-effect
       effect="simplify"
       id="path-effect1418"
       is_visible="true"
       lpeversion="1"
       steps="1"
       threshold="0.0031393987"
       smooth_angles="0"
       helper_size="0"
       simplify_individual_paths="false"
       simplify_just_coalesce="false"
       step="1" />
    <inkscape:path-effect
       effect="powerstroke"
       id="path-effect1413"
       is_visible="true"
       lpeversion="1"
       offset_points="3.1641313,0.75579357"
       sort_points="true"
       interpolator_type="CentripetalCatmullRom"
       interpolator_beta="0.75"
       start_linecap_type="zerowidth"
       linejoin_type="spiro"
       miter_limit="4"
       scale_width="1"
       end_linecap_type="zerowidth"
       not_jump="false"
       message="&lt;b&gt;Ctrl + клацніть&lt;/b&gt; на наявному вузлі і пересуньте його" />
    <inkscape:path-effect
       effect="simplify"
       id="path-effect1411"
       is_visible="true"
       lpeversion="1"
       steps="1"
       threshold="0.0031393987"
       smooth_angles="0"
       helper_size="0"
       simplify_individual_paths="false"
       simplify_just_coalesce="false"
       step="1" />
    <inkscape:path-effect
       effect="powerstroke"
       id="path-effect1406"
       is_visible="true"
       lpeversion="1"
       offset_points="2.5275057,0.75579357"
       sort_points="true"
       interpolator_type="CentripetalCatmullRom"
       interpolator_beta="0.75"
       start_linecap_type="zerowidth"
       linejoin_type="spiro"
       miter_limit="4"
       scale_width="1"
       end_linecap_type="zerowidth"
       not_jump="false"
       message="&lt;b&gt;Ctrl + клацніть&lt;/b&gt; на наявному вузлі і пересуньте його" />
    <inkscape:path-effect
       effect="simplify"
       id="path-effect1404"
       is_visible="true"
       lpeversion="1"
       steps="1"
       threshold="0.0031393987"
       smooth_angles="0"
       helper_size="0"
       simplify_individual_paths="false"
       simplify_just_coalesce="false"
       step="1" />
    <inkscape:path-effect
       effect="powerstroke"
       id="path-effect1399"
       is_visible="true"
       lpeversion="1"
       offset_points="2.0292805,0.75579357"
       sort_points="true"
       interpolator_type="CentripetalCatmullRom"
       interpolator_beta="0.75"
       start_linecap_type="zerowidth"
       linejoin_type="spiro"
       miter_limit="4"
       scale_width="1"
       end_linecap_type="zerowidth"
       not_jump="false"
       message="&lt;b&gt;Ctrl + клацніть&lt;/b&gt; на наявному вузлі і пересуньте його" />
    <inkscape:path-effect
       effect="simplify"
       id="path-effect1397"
       is_visible="true"
       lpeversion="1"
       steps="1"
       threshold="0.0031393987"
       smooth_angles="0"
       helper_size="0"
       simplify_individual_paths="false"
       simplify_just_coalesce="false"
       step="1" />
    <inkscape:path-effect
       effect="powerstroke"
       id="path-effect1392"
       is_visible="true"
       lpeversion="1"
       offset_points="1.6076945,0.75579357"
       sort_points="true"
       interpolator_type="CentripetalCatmullRom"
       interpolator_beta="0.75"
       start_linecap_type="zerowidth"
       linejoin_type="spiro"
       miter_limit="4"
       scale_width="1"
       end_linecap_type="zerowidth"
       not_jump="false"
       message="&lt;b&gt;Ctrl + клацніть&lt;/b&gt; на наявному вузлі і пересуньте його" />
    <inkscape:path-effect
       effect="simplify"
       id="path-effect1390"
       is_visible="true"
       lpeversion="1"
       steps="1"
       threshold="0.0031393987"
       smooth_angles="0"
       helper_size="0"
       simplify_individual_paths="false"
       simplify_just_coalesce="false"
       step="1" />
    <inkscape:path-effect
       effect="simplify"
       id="path-effect1387"
       is_visible="true"
       lpeversion="1"
       steps="1"
       threshold="0.00035533"
       smooth_angles="360"
       helper_size="0"
       simplify_individual_paths="false"
       simplify_just_coalesce="false" />
    <inkscape:path-effect
       effect="simplify"
       id="path-effect1383"
       is_visible="true"
       lpeversion="1"
       steps="1"
       threshold="0.00035533"
       smooth_angles="360"
       helper_size="0"
       simplify_individual_paths="false"
       simplify_just_coalesce="false" />
    <inkscape:path-effect
       effect="simplify"
       id="path-effect1379"
       is_visible="true"
       lpeversion="1"
       steps="1"
       threshold="0.00035533"
       smooth_angles="360"
       helper_size="0"
       simplify_individual_paths="false"
       simplify_just_coalesce="false" />
    <inkscape:path-effect
       effect="copy_rotate"
       starting_point="0,0"
       origin="-63.002957,326.3416"
       id="path-effect4346"
       is_visible="true"
       lpeversion="1"
       method="normal"
       num_copies="12"
       starting_angle="0"
       rotation_angle="60"
       gap="-0.01"
       copies_to_360="true"
       mirror_copies="false"
       split_items="false"
       lpesatellites=""
       link_styles="false" />
    <inkscape:path-effect
       effect="copy_rotate"
       starting_point="0,0"
       origin="-63.002957,326.3416"
       id="path-effect4327"
       is_visible="true"
       lpeversion="1"
       method="normal"
       num_copies="15"
       starting_angle="0"
       rotation_angle="60"
       gap="-0.01"
       copies_to_360="true"
       mirror_copies="false"
       split_items="false"
       lpesatellites=""
       link_styles="false" />
    <inkscape:path-effect
       split_items="false"
       mirror_copies="false"
       copies_to_360="true"
       gap="-0.01"
       rotation_angle="60"
       starting_angle="0"
       num_copies="23"
       method="normal"
       lpeversion="1"
       is_visible="true"
       id="path-effect4308"
       origin="-63.002957,326.3416"
       starting_point="0,0"
       effect="copy_rotate"
       lpesatellites=""
       link_styles="false" />
    <linearGradient
       inkscape:collect="always"
       xlink:href="#linearGradient2742-3"
       id="linearGradient2736"
       x1="-1819.7631"
       y1="-1060.9764"
       x2="-1802.9346"
       y2="-1073.9764"
       gradientUnits="userSpaceOnUse"
       gradientTransform="matrix(0.26458333,0,0,0.26458333,405.64226,555.10649)" />
    <linearGradient
       inkscape:collect="always"
       xlink:href="#linearGradient2857"
       id="linearGradient2893"
       gradientUnits="userSpaceOnUse"
       x1="-1943.3391"
       y1="-1138.0605"
       x2="-1936.0939"
       y2="-1154.0593" />
    <linearGradient
       inkscape:collect="always"
       xlink:href="#linearGradient3177"
       id="linearGradient3166"
       x1="-556.76093"
       y1="-281.59052"
       x2="-434.96619"
       y2="-281.59052"
       gradientUnits="userSpaceOnUse"
       gradientTransform="translate(0.92604191,2.1166666)" />
    <radialGradient
       inkscape:collect="always"
       xlink:href="#linearGradient1698"
       id="radialGradient3238"
       cx="502.15793"
       cy="-285.95132"
       fx="502.15793"
       fy="-285.95132"
       r="1.8732091"
       gradientUnits="userSpaceOnUse" />
  </defs>
  <sodipodi:namedview
     inkscape:snap-global="false"
     inkscape:snap-midpoints="true"
     inkscape:snap-intersection-paths="true"
     inkscape:guide-bbox="true"
     showguides="true"
     inkscape:window-maximized="1"
     inkscape:window-y="-8"
     inkscape:window-x="-8"
     inkscape:window-height="1137"
     inkscape:window-width="1920"
     showgrid="false"
     inkscape:document-rotation="0"
     inkscape:current-layer="g1513"
     inkscape:document-units="mm"
     inkscape:cy="101.2842"
     inkscape:cx="82.072474"
     inkscape:zoom="3.2532223"
     inkscape:pageshadow="2"
     inkscape:pageopacity="0.0"
     borderopacity="1.0"
     bordercolor="#666666"
     pagecolor="#ffffff"
     id="base"
     inkscape:showpageshadow="2"
     inkscape:pagecheckerboard="0"
     inkscape:deskcolor="#d1d1d1" />
  <metadata
     id="metadata933">
    <rdf:RDF>
      <cc:Work
         rdf:about="">
        <dc:format>image/svg+xml</dc:format>
        <dc:type
           rdf:resource="http://purl.org/dc/dcmitype/StillImage" />
      </cc:Work>
    </rdf:RDF>
  </metadata>
  <g
     id="layer1"
     inkscape:groupmode="layer"
     inkscape:label="Слой 1">
    <g
       transform="translate(7.0943854,1.6123597)"
       id="g1513">
      <text
         xml:space="preserve"
         id="text3210"
         style="font-style:normal;font-weight:normal;font-size:10.5833px;line-height:1.25;font-family:sans-serif;letter-spacing:0px;word-spacing:0px;white-space:pre;shape-inside:url(#rect3212);display:inline;fill:#000000;fill-opacity:1;stroke:none"><tspan
           x="-584.63672"
           y="-196.44414"
           id="tspan2"><tspan
             dx="0 7.2346773 6.5215445 6.6920776"
             id="tspan1">STEA</tspan></tspan></text>
      <circle
         style="fill:#ffffff;stroke-width:0.25;stroke-miterlimit:0.8;fill-opacity:1"
         id="path2"
         cx="12.905615"
         cy="18.38764"
         r="20" />
      <path
         id="path1"
         style="fill:#000000;fill-opacity:1;stroke:none;stroke-width:0.260265;stroke-miterlimit:0.8"
         d="m 12.910453,-1.6123597 a 19.994869,19.994869 0 0 0 -14.2787154,6.06888 c -0.01272,0.150341 -0.07963,0.423014 -0.182418,0.675928 -0.05747,0.141446 -0.139478,0.463719 -0.182418,0.716235 -0.04295,0.252516 -0.109564,0.537628 -0.147794,0.633553 -0.03829,0.09592 -0.0567,0.187272 -0.04082,0.203089 0.03558,0.03554 0.0081,0.07036 0.340548,-0.428398 0.6368,-0.954311 1.583325,-1.489617 2.410706,-1.362707 l 0.290421,0.04496 -0.321944,0.0062 c -0.35226,0.0071 -0.66571,0.07729 -0.996838,0.223759 -0.354953,0.157015 -0.978266,0.655257 -0.819588,0.655257 0.03355,0 0.09392,-0.0278 0.133841,-0.06201 0.185022,-0.158451 1.317032,-0.555391 1.731678,-0.607198 0.158685,-0.01982 0.391334,-0.09613 0.564823,-0.185002 0.162311,-0.08315 0.388953,-0.178444 0.503329,-0.211873 0.169374,-0.04951 0.253936,-0.117357 0.455786,-0.366903 0.245692,-0.303751 0.591472,-0.598369 0.874365,-0.744657 0.08087,-0.0418 0.155864,-0.07597 0.166915,-0.07597 0.01061,0 -0.129218,0.149888 -0.312126,0.333313 -0.286353,0.287151 -0.761194,0.977505 -0.761194,1.106909 0,0.07256 0.02465,0.104396 0.203605,-0.01137 0.248898,-0.2533 0.559749,-0.402519 0.854212,-0.595313 0.430007,-0.287641 0.646884,-0.399957 0.979268,-0.506429 0.380207,-0.12179 1.211826,-0.256803 0.906922,-0.147278 -0.381343,0.136988 -1.066715,0.440789 -1.328085,0.589112 l -0.304891,0.173116 0.482658,0.03204 c 0.651635,0.04317 1.229823,0.202003 1.457792,0.247013 1.05833,0.208956 -0.800802,0.07696 -1.243335,0.05271 -0.267786,-0.01197 -0.31018,0.08743 -0.223758,0.0863 0.105228,-0.0014 0.146638,0.02112 0.236678,0.02274 0.219573,0.004 1.120504,0.171576 0.949812,0.176733 -0.184066,0.0056 -0.132592,0.04092 0.13746,0.09405 0.657548,0.168295 1.070845,0.265664 1.567346,0.498161 0.399585,0.187115 1.227051,0.729752 1.116211,0.712101 -0.332458,-0.0529 -0.433393,-0.251782 -0.836642,-0.208256 l 0.217041,0.200505 c 0.119206,0.110212 0.237903,0.426747 0.252181,0.510563 0.02768,0.162627 0.0083,0.0036 -0.2651,-0.185519 -0.211313,-0.146395 -0.243197,-0.09262 -0.06873,0.114722 0.07828,0.09306 0.14211,0.186557 0.14211,0.207739 0.08218,0.08983 0.123379,0.158532 0.134359,0.210323 v 5.17e-4 c 0.403655,0.138308 0.885757,0.434153 1.033528,0.656808 0.01941,0.02925 -0.03036,0.03324 -0.103869,0.02791 0.160238,0.106335 0.326272,0.235475 0.49661,0.393258 0.208613,0.193234 -0.691936,-0.228957 -1.001489,-0.09457 0.280929,0.07362 1.207556,0.381112 1.299145,0.649572 -0.313224,0.0047 -0.915385,-0.262541 -0.667142,0.07855 0.112412,0.154445 0.006,0.03992 0.183968,0.234611 0.232121,0.252936 0.624043,0.448622 0.961181,0.103869 0.1158284,-0.118398 -0.100698,0.649136 -0.648022,0.612883 -0.163771,-0.01083 -0.139966,-0.08929 -0.101803,0.03101 0.0083,0.02607 0.165404,0.2097767 0.306958,0.3787877 0.0075,-0.02976 0.04967,-0.03728 0.164848,10e-4 0.05732,0.01905 0.07035,0.0383 0.03462,0.05168 -0.04837,0.01808 -0.06289,0.06983 -0.05426,0.12764 0.05876,0.07152 0.113571,0.139905 0.163298,0.204122 0.100367,0.05406 0.2408744,0.07634 0.6568074,0.08888 0.597818,0.01803 1.456686,-0.02798 1.409217,-0.07545 -0.0152,-0.01522 -0.436001,-0.02953 -0.934827,-0.03204 -0.9653564,-0.0048 -1.1601364,-0.03972 -1.1601364,-0.206189 0,-0.05123 0.02245,-0.09302 0.04961,-0.09302 0.02716,0 0.2559734,-0.160493 0.5084974,-0.356567 0.427238,-0.3317447 0.589387,-0.4518997 0.711067,-0.4945427 0.05364,-0.01882 0.09983,-0.02265 0.157097,-0.02274 0.07557,-1.21e-4 0.13555,0.0033 0.295589,0.03307 0.195419,0.03635 0.540115,0.111819 1.245402,0.267684 0.430097,0.09505 0.863637,0.1853627 0.963765,0.2005037 0.164854,0.02492 0.187431,0.04518 0.235645,0.211874 0.02934,0.101242 0.0679,0.432311 0.08578,0.735872 0.0179,0.303561 0.07094,0.810812 0.117822,1.127063 0.04694,0.31625 0.09814,0.864845 0.113688,1.219047 0.02708,0.613752 0.104641,1.291622 0.143661,1.252637 0.04295,-0.04292 -0.08455,-1.990513 -0.163298,-2.494938 -0.04747,-0.3036 -0.100236,-0.769431 -0.117305,-1.035079 -0.02896,-0.451415 -0.07594,-0.764585 -0.138493,-0.927592 -0.02167,-0.05635 0.05281,-0.07904 0.401009,-0.123507 1.593038,-0.2034027 1.557055,-0.2008607 2.105298,-0.1483107 1.062301,0.101831 3.599805,0.6577207 4.111894,0.9007197 0.08369,0.03973 0.315999,0.218902 0.516247,0.398425 0.200248,0.179519 0.509155,0.44142 0.686263,0.581877 0.584299,0.463409 0.951752,0.806435 1.488281,1.388546 1.820963,1.97565 3.34918,4.941462 4.401799,8.543147 0.115941,0.396766 0.218193,0.733227 0.226859,0.747242 0.02174,0.03527 0.239511,0.849542 0.375688,1.404565 0.06206,0.252999 0.152256,0.615368 0.199988,0.805119 0.08557,0.340237 0.269201,1.284869 0.644405,3.311942 0.117484,0.634684 0.229456,1.080556 0.376204,1.56838 A 19.994869,19.994869 0 0 0 32.905615,18.382285 19.994869,19.994869 0 0 0 12.910453,-1.6123597 Z m -14.4321944,6.222359 a 19.994869,19.994869 0 0 0 -0.8909017,0.962732 c -0.028377,0.06137 -0.015787,0.0547 -0.062012,0.145728 l -0.2526978,0.497127 0.020154,0.391191 c 0.021665,0.421528 0.1369355,0.787565 0.2211751,0.703316 0.026856,-0.02684 0.074883,-0.27389 0.107487,-0.548804 0.062288,-0.526807 0.2302652,-1.029642 0.4702552,-1.408699 0.06793,-0.107281 0.216128,-0.391652 0.329179,-0.632003 0.02145,-0.04562 0.03727,-0.07093 0.05736,-0.110588 z m -1.3327352,1.552877 a 19.994869,19.994869 0 0 0 -0.9694498,1.294495 c 0.1426256,0.406898 0.5994719,0.825213 0.8242391,0.732772 0.05958,-0.02449 0.056418,-0.03476 -0.019637,-0.06305 -0.074851,-0.02786 -0.060456,-0.03978 0.080099,-0.06615 0.2665984,-0.05002 0.2884744,-0.150088 0.1147217,-0.518831 -0.128827,-0.273489 -0.1482031,-0.362657 -0.1472779,-0.682646 7.889e-4,-0.245023 0.042018,-0.477305 0.1173055,-0.696598 z m -1.1105265,1.509985 A 19.994869,19.994869 0 0 0 -7.0841926,18.382285 19.994869,19.994869 0 0 0 12.910453,38.377447 19.994869,19.994869 0 0 0 15.441565,38.19658 c 0.07136,-0.04297 0.181937,-0.125913 0.249597,-0.188619 0.116888,-0.108364 0.125574,-0.143036 0.125574,-0.486276 0,-0.523711 0.07977,-0.696062 0.431498,-0.933793 0.345211,-0.233353 0.362334,-0.255777 0.509013,-0.65629 0.164884,-0.450196 0.156002,-0.523463 -0.0894,-0.753443 -0.27528,-0.25801 -0.299024,-0.375924 -0.179834,-0.890902 0.02234,-0.09664 0.01225,-0.126607 -0.04289,-0.126607 -0.03965,0 -0.08984,-0.03182 -0.111621,-0.0708 -0.03378,-0.06039 -0.07897,-0.04703 -0.306441,0.08992 -0.501488,0.301984 -1.127882,0.33972 -1.528589,0.09199 -0.360602,-0.222947 -0.533571,-0.487317 -1.04283,-1.591118 -0.251335,-0.544761 -0.417244,-0.797066 -0.928626,-1.413867 -0.260248,-0.313884 -0.473021,-0.630703 -0.617533,-0.919841 -0.403897,-0.808086 -1.275799,-2.685433 -1.615405,-3.477307 -0.18445,-0.4301 -0.3606934,-0.813158 -0.3911914,-0.85111 -0.03047,-0.03795 -0.07097,-0.120722 -0.08992,-0.183969 -0.07335,-0.245717 -0.372499,-0.93745 -0.805636,-1.862935 -0.248649,-0.531301 -0.559351,-1.234507 -0.690397,-1.562695 -0.211381,-0.5294 -0.651624,-1.438913 -1.314648,-2.71508 -0.118296,-0.2277 -0.251424,-0.486608 -0.29559,-0.575159 -0.09276,-0.185886 -0.343194,-0.404132 -0.489375,-0.42633 -0.104883,-0.01592 -2.340431,-2.241724 -2.251543,-2.241724 0.212864,0 -0.823051,-0.627917 -1.977657,-1.198893 -0.634753,-0.313896 -0.857148,-0.404119 -0.931209,-0.376721 -0.07945,0.02941 0.06048,0.115919 0.763778,0.472322 0.536168,0.271701 1.015439,0.552858 1.270723,0.745174 0.225427,0.169821 0.432796,0.316482 0.460954,0.326079 0.02814,0.0095 -0.01673,0.07505 -0.09974,0.14521 -0.08298,0.07017 -0.212743,0.217209 -0.288354,0.327112 l -0.137459,0.199988 -0.199988,-0.12454 c -0.109945,-0.06854 -0.286914,-0.191263 -0.393775,-0.272335 -0.13142,-0.0997 -0.33047,-0.17557 -0.545703,-0.235128 0.10091,0.187042 0.454346,0.941866 0.45527,0.942578 3.31e-4,2.52e-4 0.355266,0.354812 0.427364,0.428398 0.0038,0.0038 0.449836,-0.07481 0.450618,-0.07235 7.53e-4,0.0031 -0.444417,0.08682 -0.444417,0.08682 0,0 -0.446184,-0.411478 -0.448035,-0.40721 -0.06665,0.154334 -0.310689,0.750376 -0.306958,0.754476 0.08345,0.09167 0.276287,0.374366 0.29714,0.382922 0.565115,0.231854 0.976129,0.145314 1.153418,-0.270784 0.123741,-0.290394 0.03025,-0.781625 -0.196371,-1.031978 -0.06364,-0.07037 -0.05541,-0.100732 0.08785,-0.322978 0.306537,-0.475564 0.270725,-0.478055 0.854212,0.06356 0.28053,0.260382 0.853736,0.830681 1.27434,1.267106 0.420612,0.436426 0.801484,0.793233 0.845944,0.793233 0.104295,0 0.177067,0.08499 0.432531,0.505913 l 0.20929,0.345198 -0.169499,0.02894 c -0.126765,0.02172 -0.221173,0.08767 -0.376721,0.263033 -0.302888,0.341482 -0.913227,0.788313 -1.076937,0.788582 -0.16702,2.25e-4 -1.713184,-0.554508 -2.000394,-0.699182 -0.03212,-0.02584 -0.05858,-0.03464 -0.0832,-0.03772 -0.0094,-0.04358 -0.04731,0.0364 -0.148311,0.129708 -0.07628,0.07051 -0.15541,0.107412 -0.218074,0.150379 -0.115008,0.07879 -0.264651,0.20206 -0.397909,0.130741 -0.07663,-0.02403 -0.09048,-0.0068 -0.165881,-0.109037 l -0.02894,-0.03617 c -0.248017,-0.307838 -0.905241,-1.301345 -0.926042,-1.280542 -0.01181,0.01142 0.03794,0.135156 0.125057,0.2651 0.325103,0.484857 0.530202,0.83713 0.860413,1.177189 0.112292,0.117192 0.200442,0.09235 0.3545,0.04599 l 0.02325,0.02481 c -0.06906,0.262877 -0.109002,0.584935 -0.123506,0.980819 -0.03415,0.928224 0.02083,1.250805 0.523482,3.076298 0.0592,0.21505 0.179171,0.660791 0.266134,0.990637 0.181569,0.688708 0.335713,1.125513 0.397391,1.125513 0.0234,0 0.04237,-0.05115 0.04237,-0.113688 0,-0.06254 0.09255,-0.308375 0.205156,-0.54622 0.155931,-0.329255 0.241055,-0.454299 0.356567,-0.522966 0.08346,-0.0496 0.203407,-0.136258 0.26665,-0.192753 0.06319,-0.05649 0.383717,-0.221271 0.712618,-0.366386 0.827419,-0.365067 1.541508,-0.738583 1.541508,-0.806669 0,-0.0097 -0.253853,0.109794 -0.56379,0.265617 -0.617812,0.310613 -1.653931,0.770728 -1.678967,0.745691 -0.0082,-0.0087 0.0022,-0.30276 0.02532,-0.653707 0.04627,-0.717226 0.08569,-0.828275 0.443383,-1.258838 0.338231,-0.407094 0.367854,-0.49787 0.369487,-1.127063 0.0015,-0.598379 0.0317,-0.699042 0.298173,-1.002523 0.0738,-0.08399 0.221636,-0.333527 0.328662,-0.554488 0.20744,-0.42832 0.431703,-0.674377 0.61495,-0.674377 0.06048,0 0.138777,-0.02871 0.174149,-0.06408 0.05507,-0.05509 0.101636,0.003 0.322978,0.402559 0.326901,0.59063 0.705077,1.386217 0.954464,2.00763 0.106649,0.265649 0.339704,0.793557 0.517797,1.173055 0.590196,1.257602 0.665796,1.422567 0.856279,1.86862 0.103934,0.243424 0.188619,0.465988 0.188619,0.494543 0,0.02855 0.02116,0.05168 0.04651,0.05168 0.02528,0 0.04599,0.03695 0.04599,0.08217 0,0.08707 -0.291018,0.674991 -0.505913,1.02216 -0.07049,0.113849 -0.14993,0.279386 -0.176733,0.367936 -0.284924,0.941316 -0.574136,1.596872 -0.941028,2.132686 -0.140449,0.205123 -0.219436,0.379916 -0.256832,0.569992 -0.03648,0.185341 -0.124329,0.384233 -0.271301,0.613916 -0.216316,0.338006 -0.21759,0.342272 -0.223759,0.75861 -0.0068,0.502837 -0.08222,0.699424 -0.420129,1.105358 -0.262599,0.315475 -0.45691,0.451312 -0.711585,0.496611 -0.144617,0.02572 -0.236186,0.102886 -0.567924,0.47749 -0.47792,0.53965 -1.101606,1.113891 -1.37666,1.267623 -0.559617,0.312775 -1.197699,0.40397 -1.586466,0.227376 -0.453885,-0.206176 -0.677934,-0.504646 -0.873849,-1.163753 -0.05635,-0.189748 -0.185094,-0.531432 -0.285771,-0.759127 -0.71451,-1.615917 -0.861953,-2.020307 -0.86403,-2.368847 -6.92e-4,-0.11385 -0.03178,-0.48631 -0.06925,-0.827857 -0.03746,-0.341553 -0.1093,-1.200526 -0.15968,-1.908927 -0.0504,-0.708397 -0.102405,-1.371061 -0.115239,-1.472262 -0.0346,-0.273642 -0.10862,-1.761692 -0.138492,-2.782776 -0.03453,-1.179764 -0.05109,-1.291715 -0.253215,-1.72961 -0.195162,-0.42269 -0.246128,-0.627487 -0.324011,-1.297078 l -0.05529,-0.473873 -0.282153,-0.335897 c -1.069174,-1.273002 -1.612589,-2.062123 -1.7823024,-2.587462 -0.054389,-0.168416 -0.2019687,-0.525522 -0.3276286,-0.79375 -0.475377,-1.014792 -0.8101618,-1.906597 -0.8888346,-2.366264 -0.058151,-0.339515 -0.095228,-0.05682 -0.05426,0.415479 0.02821,0.326562 0.067714,0.495504 0.151412,0.652673 0.062063,0.116603 0.1126546,0.284934 0.1126546,0.374137 0,0.172873 -0.1911735,0.506407 -0.2888713,0.503846 -0.032122,-8.28e-4 -0.021977,-0.02737 0.024288,-0.06253 0.1069959,-0.08124 0.1015368,-0.249631 -0.013953,-0.419096 -0.3743466,-0.549321 -0.4814841,-1.045256 -0.4439005,-2.059305 0.026631,-0.71665 -0.00426,-0.866989 -0.1043864,-0.497128 -0.026104,0.09697 -0.1635063,0.349322 -0.3054078,0.561206 -0.3643263,0.543992 -0.4411941,0.737455 -0.4485514,1.129647 -0.0082,0.43555 -0.078408,0.311371 -0.1100708,-0.194303 -0.023396,-0.375341 -0.020655,-0.386573 0.151412,-0.695565 0.4344683,-0.780567 0.514,-1.011659 0.5529378,-1.602486 0.035206,-0.533984 0.1014064,-0.87703 0.2108398,-1.09244 0.090875,-0.178871 0.039111,-0.240275 -0.096118,-0.114722 -0.050177,0.04657 -0.05453,0.0446 -0.024288,-0.0083 0.072745,-0.127338 -0.1662825,0.0042 -1.1689209,0.643372 -0.2375982,0.151462 -0.4385704,0.268876 -0.4464843,0.260966 -0.0082,-0.0079 0.2853147,-0.311737 0.651123,-0.675411 0.3658007,-0.363675 0.656018,-0.670513 0.6449219,-0.681612 -0.010607,-0.01107 -0.1512941,0.01153 -0.3110921,0.05013 -0.1598132,0.03861 -0.3837949,0.08224 -0.4976441,0.09715 -0.2038587,0.0267 -0.2022771,0.02588 0.088883,-0.08527 0.5431192,-0.207333 1.5356125,-0.9497577 1.451591,-1.0857207 -0.023546,-0.03801 -0.068831,-0.01446 -0.1472779,0.07648 -0.062364,0.07232 -0.039122,0.025 0.051676,-0.104903 0.1877976,-0.268366 0.2111742,-0.34718 0.065112,-0.219109 -0.1475134,0.129386 -0.058762,-0.0074 0.2010213,-0.310575 l 0.2227254,-0.260449 -0.1963704,0.02274 c -0.5778442,0.06679 -0.9113058,0.244713 -1.1079427,0.591178 -0.1059353,0.18668 -0.1245462,0.203156 -0.1012858,0.09043 0.072294,-0.349967 0.5224739,-0.815497 0.931726,-0.963249 0.09511,-0.03435 0.2319024,-0.08554 0.3038575,-0.113688 l 0.1312593,-0.051123 -0.1415934,-0.160714 c -0.1733366,-0.197424 -0.2810089,-0.426496 -0.3291789,-0.657841 z m 8.1710777,2.5750367 c -0.124374,-0.09013 0.72756,1.36259 1.088305,2.045353 0.136177,0.257746 0.289011,0.603069 0.406177,0.774113 0.156413,0.249285 0.123632,0.05869 -0.06821,-0.394808 -0.102876,-0.243222 -0.307327,-0.669647 -0.454238,-0.947746 -0.283879,-0.340757 -0.402367,-1.064027 -0.972034,-1.476912 z m 2.891296,0.164331 c -0.02425,-1.84e-4 -0.04687,0.0064 -0.07131,0.0186 -0.469329,0.234263 -0.691128,0.561817 -0.1757,1.60352 0.02321,0.04692 0.02414,0.05566 0.03979,0.09043 -0.05448,-0.147925 -0.126711,-0.372349 -0.199471,-0.73949 -0.08204,-0.438856 -0.0065,-0.707486 0.257865,-0.770495 0.188181,-0.04472 0.225338,-0.01759 0.471806,0.174666 0.500465,0.390402 0.76948,0.611758 1.001489,1.128096 l 0.311092,0.691948 -0.07131,-0.154513 c -0.09817,-0.21298 -0.130289,-0.154819 -0.05013,0.09095 0.03611,0.110894 0.07957,0.284824 0.09663,0.386023 0.01708,0.101196 0.08664,0.264752 0.154512,0.363802 l 0.12299,0.180351 -10e-4,0.946712 c -7.53e-4,0.551608 -0.0279,1.118995 -0.06408,1.35909 -0.03415,0.226685 -0.06425,0.559502 -0.06718,0.73949 l -0.0062,0.327112 0.265617,0.325561 c 0.146159,0.178885 0.318894,0.455085 0.383439,0.613916 0.194915,0.479691 1.2352634,2.492844 2.1021984,4.067969 0.56483,1.026239 2.115837,3.2344 2.27738,3.242179 0.0082,5.54e-4 -0.03178,-0.06661 -0.08888,-0.148828 h 5.16e-4 C 13.730334,24.867098 13.42242,24.437602 13.103239,23.994854 12.288194,22.864297 12.070162,22.515676 11.452177,21.357289 10.236434,19.078411 9.9996466,18.61377 9.6998276,17.919773 9.6062476,17.70312 9.4224496,17.366991 9.2915846,17.173049 9.1307326,16.934681 9.0446616,16.755451 9.0259676,16.619077 l -0.02791,-0.202055 0.293006,-0.05271 c 0.8376494,-0.151599 1.3833974,-0.180003 1.7890384,-0.09302 0.264733,0.05677 0.313222,0.04036 0.204639,-0.06821 -0.109238,-0.109247 -1.269831,-0.101687 -1.8505344,0.01189 l -0.425297,0.0832 v -0.257349 c 1.51e-4,-0.141392 0.01986,-0.374043 0.04341,-0.517281 0.0234,-0.14324 0.05718,-0.681745 0.07493,-1.19631 l 0.03256,-0.935343 -0.167432,-0.332279 c -0.101234,-0.200935 -0.380377,-0.959478 -0.413928,-1.055233 -0.08875,-0.253428 0.157114,0.635701 -0.04754,-0.115755 -0.233994,-0.859261 -0.700253,-0.975661 -1.083138,-1.269174 -0.190707,-0.146195 -0.277612,-0.20667 -0.350366,-0.207222 z m -4.897892,0.216524 c -0.04865,0.01055 0.110683,0.223491 0.468705,0.623218 0.282998,0.315966 0.635676,0.741694 0.783415,0.945679 0.147731,0.20399 0.400756,0.548301 0.562239,0.765328 0.161476,0.217023 0.321732,0.477133 0.356051,0.578259 0.03438,0.101125 0.06981,0.179404 0.07906,0.173633 0.0094,-0.0058 0.0169,-0.109968 0.01705,-0.231511 3.46e-4,-0.244252 -0.04555,-0.33413 -0.357084,-0.699699 -0.116647,-0.136928 -0.380183,-0.468351 -0.585494,-0.736905 -0.412381,-0.53943 -1.04406,-1.25256 -1.205611,-1.360641 -0.06284,-0.04205 -0.102123,-0.06088 -0.118339,-0.05736 z m 7.445024,5.17e-4 c 0.02167,0.03745 0.04939,0.07287 0.08837,0.09922 -0.0304,-0.03352 -0.0586,-0.06588 -0.08837,-0.09922 z m 7.9147624,1.025777 c -0.03576,0.01451 -0.141984,0.08068 -0.316259,0.197921 -0.28667,0.192834 -0.921935,0.837027 -1.131714,1.147733 -0.358722,0.531283 -0.585365,0.994248 -0.68523,1.399915 -0.0924,0.375351 -0.105885,0.5808 -0.134359,2.050004 -0.03227,1.660578 -0.06487,2.015293 -0.259932,2.828768 -0.09217,0.384498 -0.117383,0.736396 -0.04961,0.694531 0.02167,-0.01342 0.05134,-0.133599 0.06563,-0.267167 0.01422,-0.133565 0.110143,-0.498095 0.213423,-0.80977 0.103235,-0.311674 0.187586,-0.647575 0.187586,-0.746724 0,-0.09915 0.06352,-0.378574 0.141076,-0.620634 0.07757,-0.24206 0.133457,-0.463131 0.124024,-0.491443 -0.01708,-0.05118 -0.2651,0.600051 -0.2651,0.696082 0,0.02764 -0.0176,0.05064 -0.03979,0.05064 -0.04792,0 -0.01912,-1.869429 0.04031,-2.622063 0.05439,-0.688303 0.133044,-0.981053 0.415478,-1.547192 0.264846,-0.530866 0.722617,-1.123779 1.13068,-1.465027 0.151787,-0.126931 0.357623,-0.299361 0.457337,-0.382922 0.107572,-0.09016 0.142209,-0.12717 0.106453,-0.112655 z M 0.6879426,12.120652 c -0.04505,0.0212 0.157722,0.192598 0.596346,0.501778 0.346686,0.244395 0.785898,0.580065 0.975651,0.745691 0.189746,0.16563 0.51379,0.444349 0.719853,0.6196 0.206063,0.175248 0.420315,0.39285 0.476457,0.483692 0.05612,0.09084 0.108621,0.159104 0.116272,0.151412 0.0082,-0.0077 -0.0086,-0.110959 -0.03566,-0.229444 -0.05447,-0.238098 -0.119188,-0.315196 -0.504879,-0.601513 -0.144466,-0.107246 -0.475533,-0.371415 -0.735872,-0.587045 -0.522928,-0.433119 -1.298347,-0.985645 -1.480013,-1.054716 -0.07067,-0.02687 -0.113142,-0.03652 -0.128158,-0.02945 z m -4.0199094,1.538924 c -0.022288,0.0052 -0.037094,0.144336 -0.025321,0.412895 0.01813,0.415103 0.031494,0.46525 0.2387452,0.882633 0.1208227,0.243382 0.3564623,0.622236 0.5234822,0.842326 0.9493395,1.251056 0.9019095,1.179015 1.0051065,1.526522 0.04296,0.144469 0.122439,0.271719 0.227893,0.364319 0.153825,0.135058 0.29714,0.185896 0.29714,0.10542 0,-0.02035 -0.07141,-0.106157 -0.158647,-0.190686 -0.08722,-0.08452 -0.24185,-0.321518 -0.343648,-0.526583 -0.101813,-0.205063 -0.364902,-0.6002 -0.584461,-0.8785 -0.7975682,-1.011032 -1.0679573,-1.534706 -1.1100095,-2.148189 -0.018318,-0.267036 -0.047992,-0.395356 -0.07028,-0.390157 z m 4.8203774,2.713529 c -0.308485,-0.03035 -0.695686,0.164856 -0.820105,0.413412 -0.08005,0.159949 -0.07997,0.176631 -0.0021,0.423747 0.08569,0.271902 0.1893,0.386077 0.734322,0.806669 0.298029,0.229993 0.574539,0.402557 0.823723,0.516764 0.006,0.0029 -0.268783,-0.367415 -0.262517,-0.364319 0.0023,0.0011 0.269917,-0.618431 0.347266,-0.762744 0.0022,-0.0038 -0.426516,-0.900885 -0.448551,-0.95343 -0.122039,-0.03226 -0.243976,-0.06749 -0.372071,-0.0801 z m 21.5852464,0.549321 c -0.0094,-0.04434 -0.04328,0.04354 -0.0739,0.195337 -0.222026,1.099716 -0.505792,2.010463 -1.151868,3.698482 -0.525696,1.373483 -0.744757,2.027752 -1.088305,3.247347 -0.498111,1.768351 -0.519543,1.840556 -0.969967,3.265951 -0.239841,0.759002 -0.497171,1.574201 -0.571541,1.811259 -0.148792,0.474287 -0.160319,0.618197 -0.0832,1.036629 0.05146,0.27906 0.05035,0.285635 -0.11989,0.623734 -0.09464,0.187971 -0.219868,0.500768 -0.278019,0.695048 -0.05815,0.194281 -0.138576,0.416755 -0.1788,0.494544 -0.04341,0.08412 -0.07001,0.278982 -0.07545,0.444417 -0.08828,0.284267 -0.07221,0.389959 -0.237711,0.65009 -0.01204,0.0617 -0.206479,0.232205 -0.323495,0.228926 -0.158121,-0.01688 -0.852176,0.221189 -0.803052,0.114205 0.155036,-0.264704 0.07716,-0.576371 0.06666,-0.871264 -0.02776,-0.782135 -0.09887,-1.136584 -0.49351,-2.449463 -0.323727,-1.077097 -0.644579,-1.976166 -0.853178,-2.390552 -0.0838,-0.166424 -0.347906,-0.59087 -0.586527,-0.943095 -0.584863,-0.86328 -0.802576,-1.22537 -0.910022,-1.512569 -0.0784,-0.209625 -0.115618,-0.251545 -0.281637,-0.316777 -0.254096,-0.09982 -0.282017,-0.0538 -0.07545,0.124024 0.09276,0.07987 0.286332,0.340473 0.429948,0.579293 0.264033,0.439042 0.326891,0.536086 0.95033,1.458308 0.343022,0.507435 0.601811,1.045577 0.752409,1.564763 0.04288,0.147738 0.116172,0.351486 0.162264,0.452685 0.154074,0.337908 0.510248,1.465239 0.646989,2.046904 0.108643,0.461953 0.141095,0.725259 0.163814,1.338419 0.02693,0.726121 0.02313,0.769819 -0.06873,0.897103 -0.05311,0.07358 -0.109005,0.195916 -0.12454,0.271818 -0.02693,0.13127 -0.02519,0.133512 0.04341,0.04858 0.03965,-0.04911 0.07235,-0.108083 0.07235,-0.131258 v -5.17e-4 c 0,-0.02318 0.02989,-0.03044 0.06615,-0.01654 0.162957,-0.07963 0.207388,-0.08411 0.539502,-0.102836 0.216963,0.03519 0.534851,0.0011 0.713652,-0.36897 l 0.205155,-0.40566 c 0.02881,-0.02883 0.07767,-0.193554 0.108521,-0.365869 0.09499,-0.531332 0.295375,-1.217647 0.454752,-1.556494 0.148341,-0.315398 0.151648,-0.335256 0.130742,-0.805119 -0.02106,-0.475247 -0.01844,-0.492506 0.219108,-1.286743 0.132423,-0.442743 0.27945,-0.908582 0.326595,-1.035079 0.151689,-0.407132 0.588715,-1.85894 0.851627,-2.828768 0.140592,-0.518654 0.317969,-1.150015 0.393775,-1.403015 0.221696,-0.739835 0.771262,-2.230496 0.932759,-2.530078 0.192666,-0.357377 0.386484,-0.924132 0.73639,-2.151807 0.220633,-0.774133 0.411761,-1.682512 0.381888,-1.815393 z m -23.6352504,0.05839 c -0.06002,-0.008 -0.119403,-0.0055 -0.182934,0.0047 -0.21828,0.03491 -0.274402,0.116521 -0.274402,0.398942 0,0.217423 0.111474,0.425053 0.383956,0.715719 0.204001,0.217557 0.746022,0.592931 0.907438,0.628385 0.07455,0.01638 0.156441,0.06928 0.182418,0.117822 0.04709,0.08787 0.135909,0.121754 0.135909,0.05168 0,-0.02024 -0.02151,-0.05868 -0.04806,-0.08527 -0.03378,-0.03381 -0.01278,-0.0719 0.0708,-0.126607 0.373331,-0.244613 0.190887,-0.730811 -0.486792,-1.296045 -0.322161,-0.26871 -0.508263,-0.38513 -0.68833,-0.409278 z m 12.5165494,0.05374 c -0.10194,-0.0133 -0.227477,0.284485 -0.22996,0.54622 -0.0023,0.204953 -0.01885,0.245205 -0.14211,0.336413 -0.149635,0.110636 -0.150096,0.131333 -0.0124,0.465605 0.05288,0.128426 0.07428,0.14637 0.106453,0.0894 0.02317,-0.04098 0.02315,-0.147458 0,-0.250114 -0.03588,-0.15931 -0.02746,-0.190914 0.07545,-0.286287 0.09288,-0.08602 0.109517,-0.133895 0.08527,-0.243913 -0.04611,-0.210249 0.01252,-0.39328 0.14521,-0.453719 0.167976,-0.07654 0.737837,0.08582 1.293978,0.36897 0.24157,0.122984 0.447146,0.215866 0.45682,0.206189 0.04047,-0.04048 -0.449372,-0.350935 -0.768945,-0.487309 -0.292153,-0.124677 -0.755045,-0.258233 -1.009758,-0.291455 z m 2.538863,0.09405 c -0.0056,-0.0091 -0.01159,0.003 -0.01757,0.03514 -0.07237,0.389946 -0.04022,1.187077 0.07545,1.862935 0.06274,0.366848 0.117214,0.67723 0.120923,0.689881 0.0038,0.01264 0.01589,-0.02321 0.02687,-0.0801 0.01061,-0.05688 -0.0127,-0.306399 -0.05219,-0.554488 h 5.17e-4 c -0.03942,-0.248087 -0.08638,-0.822893 -0.104386,-1.276925 -0.01715,-0.432487 -0.0328,-0.649246 -0.04961,-0.676444 z m 9.776148,1.503784 c -0.03882,-0.0389 -2.518041,2.864292 -2.516642,2.947107 5.57e-4,0.02531 0.04684,-0.0078 0.102836,-0.0739 0.05605,-0.06604 0.32918,-0.387018 0.607198,-0.713135 0.278032,-0.326119 0.713498,-0.830947 0.967383,-1.121895 0.646444,-0.740804 0.865645,-1.011756 0.839225,-1.03818 z m -6.54172,0.28422 c 0.003,-0.0082 -0.02946,0.0099 -0.09457,0.04806 -0.294485,0.172658 -1.219557,0.883265 -1.709973,1.313098 -0.282946,0.247987 -0.532441,0.451135 -0.553971,0.451135 -0.06274,0 -0.176844,0.227959 -0.286804,0.573608 -0.07946,0.24968 -0.09497,0.377558 -0.07131,0.575159 0.0404,0.337404 0.164157,0.887461 0.19327,0.858346 0.01271,-0.01272 0.0024,-0.226533 -0.02274,-0.474907 -0.09288,-0.913032 0.02388,-1.205388 0.743624,-1.860351 0.267704,-0.243623 0.720354,-0.620321 1.005624,-0.837159 0.285261,-0.21684 0.591003,-0.458458 0.679545,-0.536918 0.07592,-0.06727 0.114274,-0.101914 0.117305,-0.110071 z m -0.03359,4.439523 c -0.0063,-0.003 -0.0239,6.57e-4 -0.05271,0.01085 -0.446039,0.157552 -0.964338,0.270644 -1.410767,0.307991 -0.29095,0.02434 -0.64324,0.06447 -0.782381,0.08888 -0.537395,0.09424 -0.559248,0.09592 -0.529684,0.04806 0.01602,-0.02601 0.0062,-0.04703 -0.0217,-0.04703 -0.02813,0 -0.08322,0.07651 -0.122473,0.170533 -0.03934,0.09401 -0.159816,0.295896 -0.267684,0.448551 -0.107824,0.152655 -0.220055,0.324447 -0.249597,0.381372 -0.08817,0.16982 0.0082,0.1154 0.149862,-0.08423 0.242366,-0.342504 0.629517,-0.725818 0.77928,-0.771529 0.216226,-0.066 0.40919,-0.09322 0.998906,-0.141076 0.51782,-0.04202 1.379903,-0.2629 1.494482,-0.382923 0.01583,-0.01656 0.02072,-0.02642 0.01447,-0.02945 z m -2.389519,2.583821 c -0.02981,0.0095 0.01709,0.04482 0.167432,0.09819 0.126089,0.04477 0.426274,0.175857 0.666626,0.290938 0.352824,0.16893 0.496546,0.27069 0.747241,0.528133 0.170774,0.175373 0.312207,0.342929 0.314193,0.372587 0.0023,0.03752 0.01062,0.03635 0.02687,-0.0036 0.01271,-0.03158 -0.02005,-0.12738 -0.07286,-0.212907 -0.225246,-0.364469 -0.885691,-0.794992 -1.556494,-1.014925 -0.156665,-0.05136 -0.2632,-0.06786 -0.293006,-0.0584 z m 1.891874,0.826823 c 0,0.01549 0.13785,0.231305 0.306442,0.479558 0.168607,0.248246 0.451034,0.747084 0.627352,1.108459 0.313104,0.641785 0.419816,0.804046 0.291455,0.442867 -0.137568,-0.38713 -0.588666,-1.282293 -0.781865,-1.551843 -0.193027,-0.2693 -0.443384,-0.53993 -0.443384,-0.479041 z M 5.5222726,27.557943 c -0.0082,0.008 0.112868,0.208086 0.268717,0.444935 0.321146,0.488092 0.614571,1.055206 0.800985,1.548742 0.06981,0.184872 0.135474,0.328061 0.145727,0.31781 0.01061,-0.01024 -0.025,-0.161789 -0.07855,-0.336413 h -5.17e-4 c -0.133209,-0.434203 -0.539666,-1.210029 -0.857825,-1.636584 -0.144896,-0.194289 -0.270495,-0.34652 -0.278536,-0.338481 z m -1.299146,0.03721 c -0.0084,0.01621 0.06448,0.06105 0.225826,0.11989 0.325456,0.118665 1.010203,0.562082 1.245402,0.806669 0.194185,0.201934 0.275301,0.215877 0.138493,0.02377 -0.203633,-0.285984 -0.887438,-0.741467 -1.348755,-0.898653 -0.163037,-0.05555 -0.252586,-0.06789 -0.260966,-0.05168 z m 0.324528,0.366903 c -0.01115,-8.01e-4 -0.0063,0.0208 0.02015,0.07131 0.02422,0.04615 0.102137,0.214776 0.205672,0.352433 0.894687,1.189796 0.508602,0.294925 1.37356,2.211234 0.408955,0.906046 0.328203,1.78087 0.243396,2.241207 0.124256,-0.622013 0.22065,-1.554789 0.01705,-2.252575 -0.248138,-0.850488 -1.389661,-2.020732 -1.502751,-2.192115 -0.148815,-0.225544 -0.323631,-0.429094 -0.357084,-0.431498 z M 24.582608,31.12052 c 0.01685,-0.02725 -0.08044,0.01529 -0.216007,0.09457 -1.042299,0.60929 -2.227334,1.078923 -3.305742,1.309997 -0.316255,0.06776 -0.647314,0.141828 -0.735872,0.164848 -0.355352,0.0924 0.402037,-0.0098 0.919324,-0.124024 0.64035,-0.14146 1.636578,-0.486451 2.147672,-0.743623 0.476988,-0.240008 1.150619,-0.637019 1.190625,-0.701766 z m -6.234761,2.046386 c -0.01359,0.02293 0.257034,0.188636 0.689363,0.414962 0.52356,0.274099 0.689881,0.342018 0.689881,0.28112 0,-0.01195 -0.233176,-0.138249 -0.517798,-0.280603 -0.284623,-0.142347 -0.538696,-0.276311 -0.564823,-0.29765 -0.0261,-0.02134 -0.108861,-0.0617 -0.183968,-0.08992 -0.07223,-0.02716 -0.108124,-0.03555 -0.112654,-0.02791 z m 1.501717,0.696599 c -0.01761,-0.0065 -0.09331,0.05492 -0.21239,0.190169 -0.295381,0.335578 -0.658631,1.102722 -0.683163,1.441772 -0.01354,0.187405 -0.03983,0.275436 -0.08113,0.275436 -0.0334,0 -0.07165,-0.01857 -0.08527,-0.04082 -0.02528,-0.04092 -0.21084,-0.103644 -0.21084,-0.07131 0,0.0464 0.798167,0.423342 0.911572,0.430465 0.0331,0.0019 0.04913,-0.01404 0.03566,-0.03566 -0.01339,-0.02162 -0.145809,-0.08373 -0.294555,-0.137976 l -0.270785,-0.0987 0.04082,-0.257866 c 0.06823,-0.435562 0.366466,-1.051451 0.714686,-1.476395 0.11275,-0.137594 0.152997,-0.212572 0.135392,-0.219108 z m 0.146244,0.08785 c -0.0155,0.002 -0.01385,0.0085 0.0072,0.02067 0.05815,0.0336 0.261289,0.08271 1.035079,0.250114 0.05063,0.01095 0.308984,0.01971 0.574642,0.01964 h 0.483174 l -0.643888,-0.05891 c -0.354201,-0.03239 -0.768047,-0.08985 -0.919841,-0.127641 -0.289347,-0.07205 -0.489897,-0.109828 -0.536401,-0.103869 z m 2.180745,2.015381 c -0.07189,0.0045 0.08463,0.0053 0.130742,0.0083 a 19.994869,19.994869 0 0 0 0.01499,-0.0083 c -0.05024,0.0011 -0.105667,-0.0025 -0.145728,0 z m -1.314648,0.0956 c -0.03588,-0.03591 -0.211979,0.434002 -0.237195,0.633036 -0.0063,0.04992 -0.007,0.07611 -0.0067,0.09818 a 19.994869,19.994869 0 0 0 0.03049,-0.01137 c 0.02668,-0.05622 0.06808,-0.172839 0.133842,-0.38499 0.05394,-0.17408 0.08971,-0.324748 0.07958,-0.334863 z m -1.878438,0.731221 c 0.0068,0.02582 0.233925,0.153837 0.418062,0.222726 0.08934,0.03343 0.216486,0.06754 0.355017,0.0987 a 19.994869,19.994869 0 0 0 0.165365,-0.0615 c -0.17321,-0.03477 -0.362124,-0.06835 -0.470773,-0.10697 -0.164454,-0.05845 -0.340584,-0.120575 -0.39119,-0.138493 -0.05656,-0.02003 -0.07874,-0.02307 -0.07648,-0.01447 z" />
    </g>
  </g>
</svg>
