<?xml version="1.0" encoding="UTF-8" standalone="no"?>
<!-- Created with Inkscape (http://www.inkscape.org/) -->

<svg
   width="100mm"
   height="100mm"
   viewBox="0 0 100 100"
   version="1.1"
   id="svg5"
   xml:space="preserve"
   inkscape:version="1.4.2 (f4327f4, 2025-05-13)"
   sodipodi:docname="music.svg"
   xmlns:inkscape="http://www.inkscape.org/namespaces/inkscape"
   xmlns:sodipodi="http://sodipodi.sourceforge.net/DTD/sodipodi-0.dtd"
   xmlns="http://www.w3.org/2000/svg"
   xmlns:svg="http://www.w3.org/2000/svg"><sodipodi:namedview
     id="namedview7"
     pagecolor="#ffffff"
     bordercolor="#666666"
     borderopacity="1.0"
     inkscape:showpageshadow="2"
     inkscape:pageopacity="0.0"
     inkscape:pagecheckerboard="0"
     inkscape:deskcolor="#d1d1d1"
     inkscape:document-units="mm"
     showgrid="false"
     showguides="true"
     inkscape:zoom="1.1893044"
     inkscape:cx="39.518899"
     inkscape:cy="161.85932"
     inkscape:window-width="1920"
     inkscape:window-height="1137"
     inkscape:window-x="1912"
     inkscape:window-y="-8"
     inkscape:window-maximized="1"
     inkscape:current-layer="layer1"><sodipodi:guide
       position="5.7086283,46.607445"
       orientation="1,0"
       id="guide304"
       inkscape:locked="false" /><sodipodi:guide
       position="94.291371,27.030175"
       orientation="1,0"
       id="guide306"
       inkscape:locked="false" /><sodipodi:guide
       position="65.101986,7.4528449"
       orientation="0,-1"
       id="guide308"
       inkscape:locked="false" /><sodipodi:guide
       position="53.837492,92.436054"
       orientation="0,-1"
       id="guide310"
       inkscape:locked="false" /><sodipodi:guide
       position="55.840302,14.660224"
       orientation="0,-1"
       id="guide312"
       inkscape:locked="false" /><sodipodi:guide
       position="59.399216,85.383395"
       orientation="0,-1"
       id="guide314"
       inkscape:locked="false" /></sodipodi:namedview><defs
     id="defs2" /><g
     inkscape:label="Слой 1"
     inkscape:groupmode="layer"
     id="layer1"><path
       style="fill:#000000;stroke-width:1.04082"
       d="M 21.96885,92.474161 C 14.697879,91.739995 8.542441,86.555483 7.5044288,80.29128 6.3883061,73.555694 11.453051,66.967714 19.314086,64.929836 c 2.405015,-0.62347 6.582893,-0.760469 8.619651,-0.282652 0.681576,0.159895 1.456093,0.293748 1.721151,0.297451 0.454815,0.0063 0.481921,-1.173338 0.481921,-20.973198 0,-20.852251 0.0035,-20.987314 0.587313,-22.193158 1.093695,-2.259272 1.666771,-2.491333 11.566423,-4.683728 4.902226,-1.085655 16.760624,-3.711936 26.351993,-5.836179 9.59137,-2.1242426 17.992077,-3.8622592 18.668236,-3.8622592 1.35521,0 2.944078,0.695506 3.87929,1.6981084 1.520493,1.6300588 1.458909,0.321212 1.458909,31.0058828 0,24.551103 -0.05612,28.531003 -0.422139,29.936238 -1.791095,6.87648 -9.368548,11.598777 -17.753204,11.063863 -5.000122,-0.318992 -8.603903,-1.846864 -11.726648,-4.97167 -7.070154,-7.07482 -4.747131,-17.251399 4.940727,-21.644083 3.442338,-1.56083 7.413904,-1.994765 11.355195,-1.240672 1.176598,0.225121 2.180391,0.368189 2.23065,0.317929 0.05026,-0.05026 0.05889,-4.737496 0.01918,-10.416079 l -0.0722,-10.324696 -19.894484,4.430243 -19.894483,4.430243 -0.002,19.012483 c -0.0022,20.72798 0.0017,20.670827 -1.594529,23.650794 -1.210645,2.260179 -3.969971,4.805802 -6.668999,6.152499 -3.607641,1.800057 -7.006329,2.400121 -11.197183,1.976965 z"
       id="path1" /></g></svg>
