<?xml version="1.0" encoding="UTF-8" standalone="no"?>
<!-- Created with Inkscape (http://www.inkscape.org/) -->

<svg
   width="100mm"
   height="100mm"
   viewBox="0 0 100 100"
   version="1.1"
   id="svg5"
   xml:space="preserve"
   inkscape:version="1.4.2 (f4327f4, 2025-05-13)"
   sodipodi:docname="sfx.svg"
   xmlns:inkscape="http://www.inkscape.org/namespaces/inkscape"
   xmlns:sodipodi="http://sodipodi.sourceforge.net/DTD/sodipodi-0.dtd"
   xmlns="http://www.w3.org/2000/svg"
   xmlns:svg="http://www.w3.org/2000/svg"><sodipodi:namedview
     id="namedview7"
     pagecolor="#ffffff"
     bordercolor="#666666"
     borderopacity="1.0"
     inkscape:showpageshadow="2"
     inkscape:pageopacity="0.0"
     inkscape:pagecheckerboard="0"
     inkscape:deskcolor="#d1d1d1"
     inkscape:document-units="mm"
     showgrid="false"
     showguides="true"
     inkscape:zoom="1.1893044"
     inkscape:cx="39.518899"
     inkscape:cy="161.85932"
     inkscape:window-width="1920"
     inkscape:window-height="1137"
     inkscape:window-x="1912"
     inkscape:window-y="-8"
     inkscape:window-maximized="1"
     inkscape:current-layer="layer1"><sodipodi:guide
       position="5.7086283,46.607445"
       orientation="1,0"
       id="guide304"
       inkscape:locked="false" /><sodipodi:guide
       position="94.291371,27.030175"
       orientation="1,0"
       id="guide306"
       inkscape:locked="false" /><sodipodi:guide
       position="65.101986,7.4528449"
       orientation="0,-1"
       id="guide308"
       inkscape:locked="false" /><sodipodi:guide
       position="53.837492,92.436054"
       orientation="0,-1"
       id="guide310"
       inkscape:locked="false" /><sodipodi:guide
       position="55.840302,14.660224"
       orientation="0,-1"
       id="guide312"
       inkscape:locked="false" /><sodipodi:guide
       position="59.399216,85.383395"
       orientation="0,-1"
       id="guide314"
       inkscape:locked="false" /></sodipodi:namedview><defs
     id="defs2" /><g
     inkscape:label="Слой 1"
     inkscape:groupmode="layer"
     id="layer1"><path
       style="fill:#000000;stroke-width:0.678999"
       d="M 48.078725,88.723821 C 47.627107,88.596981 46.899516,88.282315 46.461859,88.024555 46.024202,87.766792 40.392907,82.859595 33.94787,77.119671 l -11.71825,-10.436228 -4.719886,-0.0022 c -5.078683,-0.0023 -5.7387,-0.08762 -7.466028,-0.965207 C 8.1080384,64.732641 6.5280675,62.790974 5.9743874,60.71518 5.7067332,59.711718 5.6795805,58.486277 5.7284701,49.6165 l 0.054965,-9.970673 0.5775903,-1.219405 c 1.1240094,-2.373 3.6073844,-4.333893 6.057607,-4.783133 0.586296,-0.107497 3.052016,-0.199132 5.479379,-0.203637 l 4.413386,-0.0082 6.377638,-5.672479 C 43.575682,14.518337 46.031436,12.385972 46.910573,11.936979 c 0.6651,-0.339679 1.275456,-0.486528 2.258755,-0.543445 2.432944,-0.14083 4.362456,0.97322 5.582298,3.22307 l 0.615689,1.135566 V 50.065655 84.37914 l -0.388207,0.839995 c -1.209198,2.616427 -4.361803,4.217621 -6.900383,3.504686 z m 30.57986,-12.008297 c -1.322275,-0.234726 -2.334003,-0.954377 -2.825374,-2.009708 -0.545927,-1.172502 -0.585027,-2.713078 -0.09322,-3.672974 0.187828,-0.366596 1.343107,-1.677079 2.567289,-2.912185 3.895992,-3.930759 6.120527,-7.915214 7.246865,-12.980156 0.452899,-2.036606 0.550063,-6.494722 0.190983,-8.762631 C 84.825596,40.570232 82.007099,35.348838 77.628561,31.341553 75.8398,29.704459 75.398488,28.926398 75.398488,27.40978 c 0,-2.878339 3.072492,-4.877677 5.659031,-3.682457 0.395235,0.182635 1.324931,0.869242 2.065996,1.525793 6.015934,5.329875 10.054896,13.153198 10.955032,21.219504 0.932619,8.357416 -1.203118,16.250973 -6.343341,23.444554 -1.286524,1.800451 -5.324244,5.897779 -6.236113,6.328173 -0.968686,0.457212 -1.975105,0.623801 -2.840508,0.470177 z M 67.924016,63.78819 c -0.888408,-0.204406 -2.115732,-1.211488 -2.570696,-2.109387 -0.901596,-1.779359 -0.576801,-3.548862 0.9325,-5.080316 1.970823,-1.999751 2.655456,-3.195167 3.016142,-5.266378 0.436988,-2.509369 -0.418467,-4.950893 -2.503909,-7.146322 -1.420258,-1.495162 -1.989206,-2.548135 -1.995075,-3.692358 -0.01425,-2.77363 2.929919,-4.872273 5.517389,-3.932902 0.943064,0.342377 2.519308,1.688403 3.663949,3.128814 1.193384,1.501748 2.689693,4.425041 3.104245,6.064672 1.374031,5.434552 0.164069,10.828173 -3.408784,15.195264 -2.003954,2.449427 -3.735856,3.303654 -5.755761,2.838913 z"
       id="path1" /></g></svg>
