<?xml version="1.0" encoding="UTF-8" standalone="no"?>
<!-- Created with Inkscape (http://www.inkscape.org/) -->

<svg
   width="100mm"
   height="160mm"
   viewBox="0 0 100 160"
   version="1.1"
   id="svg1"
   xml:space="preserve"
   inkscape:version="1.3.2 (091e20e, 2023-11-25, custom)"
   sodipodi:docname="background_guy.svg"
   xmlns:inkscape="http://www.inkscape.org/namespaces/inkscape"
   xmlns:sodipodi="http://sodipodi.sourceforge.net/DTD/sodipodi-0.dtd"
   xmlns="http://www.w3.org/2000/svg"
   xmlns:svg="http://www.w3.org/2000/svg"><sodipodi:namedview
     id="namedview1"
     pagecolor="#ffffff"
     bordercolor="#666666"
     borderopacity="1.0"
     inkscape:showpageshadow="2"
     inkscape:pageopacity="0.0"
     inkscape:pagecheckerboard="0"
     inkscape:deskcolor="#d1d1d1"
     inkscape:document-units="mm"
     inkscape:zoom="1"
     inkscape:cx="162"
     inkscape:cy="318.49999"
     inkscape:current-layer="layer1" /><defs
     id="defs1"><rect
       x="77.696587"
       y="43.70433"
       width="347.68948"
       height="112.99391"
       id="rect1" /></defs><g
     inkscape:label="Шар 1"
     inkscape:groupmode="layer"
     id="layer1"><path
       style="fill:#000000;stroke-width:0.428928"
       d="m 75.286496,157.56946 c 0,-0.077 -1.505613,-0.75589 -1.55873,-0.70279 -0.05252,0.0525 0.224476,0.2221 0.877823,0.53828 0.386147,0.18683 0.680907,0.25805 0.680907,0.16443 z m -33.138174,-2.46311 c -0.155898,-0.12751 -0.692284,-0.60409 -1.191624,-1.05904 -0.982275,-0.89495 -1.286667,-1.15072 -2.156249,-1.81179 -0.441157,-0.33533 -0.392123,-0.27087 0.220133,0.2897 0.433195,0.39656 1.299306,1.1934 1.924702,1.77077 0.625377,0.57738 1.215733,1.04807 1.311889,1.04599 0.12342,-0.002 0.0915,-0.0718 -0.108943,-0.23563 z m 30.523248,-1.64223 c -0.444461,-0.45662 -1.130138,-0.94005 -1.130138,-0.79681 0,0.0637 1.503998,1.3166 1.58037,1.3166 0.03044,0 -0.17186,-0.23392 -0.450232,-0.51979 z m -31.463504,-6.56379 c -0.258161,-0.1958 -1.769601,-0.6852 -1.854362,-0.60042 -0.03508,0.0351 0.106902,0.11433 0.31564,0.17613 0.208793,0.0618 0.660343,0.21687 1.003655,0.34463 0.736251,0.27403 0.804828,0.28422 0.535067,0.0796 z m 19.325157,-33.38665 c 0,-0.0247 -0.105231,-0.0445 -0.233774,-0.0445 -0.128616,0 -0.203578,0.0488 -0.166663,0.10857 0.06069,0.098 0.40027,0.0438 0.40027,-0.0638 z m 1.33108,3.2e-4 c -0.03768,-0.0377 -0.135669,-0.0418 -0.217516,-0.009 -0.09057,0.0362 -0.06366,0.0631 0.06848,0.0685 0.119708,0.004 0.186726,-0.0217 0.149032,-0.0596 z m 10.228195,-2.538 c 0.459122,-0.13437 0.80945,-0.26976 0.778492,-0.30074 -0.07498,-0.0748 -1.808743,0.41809 -1.95371,0.5555 -0.12806,0.12138 -0.05661,0.10598 1.175218,-0.25476 z m 2.229373,-0.73941 c 0.436907,-0.15441 0.714945,-0.28191 0.617824,-0.28321 -0.203559,-0.002 -1.582467,0.44923 -1.582467,0.51871 0,0.0869 0.17019,0.0455 0.964643,-0.2355 z m -7.435154,-1.49464 c -0.134555,-0.42735 -0.393032,-1.46642 -0.574395,-2.30907 -0.283142,-1.31539 -0.32026,-1.41972 -0.262819,-0.73766 0.06422,0.76209 0.562739,2.93443 0.830551,3.61895 0.245114,0.62609 0.250051,0.20041 0.0056,-0.57222 z m -2.67233,-0.38932 c -0.334979,-0.35174 -5.053037,-4.30277 -5.527118,-4.62857 -0.562591,-0.38663 0.08779,0.2423 1.372133,1.32711 1.875594,1.58403 4.380871,3.64267 4.438721,3.64741 0.02617,0.002 -0.100406,-0.15349 -0.283736,-0.34595 z m 11.166409,-2.78085 c 1.581075,-0.77474 2.918632,-1.40864 2.972325,-1.40864 0.05364,0 0.128987,-0.0508 0.167591,-0.11321 0.108387,-0.17502 -0.04009,-0.11191 -3.614832,1.54184 -1.698092,0.78549 -3.384677,1.73324 -3.544418,1.9917 -0.03953,0.0642 0.201833,-0.0453 0.536292,-0.24324 0.334589,-0.19793 1.901967,-0.99376 3.483061,-1.76852 z m -8.557014,-5.55091 c 0.05494,-0.235889 0.04566,-0.288171 -0.02988,-0.170189 -0.157384,0.245749 -0.814832,2.923009 -0.80468,3.276419 0.0056,0.24268 0.377071,-1.1347 0.834616,-3.10619 z m 4.201291,-6.169106 c -0.05921,-0.05364 -0.567417,-0.159054 -1.129209,-0.234126 -0.561756,-0.07517 -1.353296,-0.254561 -1.759023,-0.398768 -0.405727,-0.144206 -0.839813,-0.298379 -0.964662,-0.342587 -0.558136,-0.197639 0.237542,0.287503 0.843246,0.514113 0.886713,0.331768 3.270259,0.697147 3.009648,0.461368 z m 0.396076,-1.988416 c 0.133071,-0.429465 0.221581,-0.801265 0.1966,-0.826227 -0.08853,-0.08853 -0.523245,1.071062 -0.585457,1.562088 -0.07721,0.609342 0.04176,0.383976 0.388894,-0.735861 z m 9.031411,-1.042964 c 0.06162,-0.887585 -0.08482,-0.616339 -0.21837,0.405244 -0.05865,0.447542 -0.04677,0.589799 0.0412,0.502645 0.06774,-0.06681 0.147176,-0.475399 0.177056,-0.907889 z m -12.135322,0.194744 c -0.03303,-0.05327 -0.360219,-0.206474 -0.727194,-0.340305 l -0.667266,-0.243295 0.09966,-0.635753 c 0.168334,-1.074589 0.904455,-2.595067 1.763551,-3.64345 0.556337,-0.678922 0.39821,-0.737644 -0.189343,-0.07034 -0.728735,0.827897 -1.625951,2.71999 -1.686474,3.556462 -0.03341,0.462334 -0.09707,0.679219 -0.198938,0.679219 -0.0824,0 -0.177799,-0.04491 -0.21141,-0.09985 -0.06236,-0.100963 -0.519143,-0.25599 -0.519143,-0.176314 0,0.114511 1.968279,1.04352 2.248062,1.061096 0.08166,0.0037 0.12175,-0.03433 0.08853,-0.0876 z m 7.848806,-0.213823 c -0.35892,-0.02246 -0.946213,-0.02246 -1.305097,0 -0.35892,0.02246 -0.06533,0.04102 0.65253,0.04102 0.717822,0 1.01145,-0.01856 0.652567,-0.04102 z m 6.494044,-1.127743 c 2.036133,-0.735658 4.664886,-1.995005 4.502751,-2.157122 -0.03137,-0.03137 -0.482006,0.174087 -1.001558,0.456357 -1.028933,0.559065 -2.88606,1.334347 -4.406019,1.839366 -0.530539,0.176315 -1.015719,0.368738 -1.078134,0.427683 -0.179098,0.169262 0.423062,-0.0037 1.98296,-0.566284 z m -9.586577,-3.27308 c -0.873851,-0.07999 -1.89523,-0.221636 -2.269722,-0.314878 -0.9518,-0.237004 -1.513147,-0.325272 -1.305115,-0.20523 0.143464,0.08296 0.644438,0.203856 2.553457,0.61684 0.124905,0.02691 0.763181,0.049 1.418588,0.04881 l 1.191624,-2.6e-4 z m -4.255763,-0.789294 c 0,-0.02951 -0.574543,-0.340936 -1.276738,-0.692135 -0.702195,-0.3512 -1.329465,-0.681613 -1.393922,-0.734266 -0.0644,-0.05271 -0.268629,-0.152744 -0.453926,-0.222304 -0.712829,-0.267979 1.67e-4,0.21102 1.4223,0.955512 1.291678,0.67623 1.702286,0.843432 1.702286,0.693193 z m -2.934853,-2.867482 c 0.07108,-0.07108 0.191385,-0.477107 0.267478,-0.902228 0.23435,-1.31085 0.729162,-3.004395 1.122361,-3.840366 0.365973,-0.778121 0.373898,-0.826858 0.322321,-1.98606 -0.05197,-1.172489 -0.04491,-1.214879 0.541136,-3.174343 0.326702,-1.092295 0.689129,-2.241344 0.805441,-2.55342 0.374232,-1.004435 1.452923,-4.58677 2.101555,-6.979447 0.346856,-1.279578 0.783707,-2.837175 0.970731,-3.461365 0.546945,-1.825242 1.90269,-5.502675 2.301123,-6.241766 0.475325,-0.881701 0.954213,-2.280634 1.817466,-5.309437 0.544329,-1.909869 1.015589,-4.150688 0.94189,-4.478519 -0.0232,-0.109389 -0.106531,0.107514 -0.182068,0.482017 -0.547762,2.713115 -1.247507,4.960238 -2.841443,9.124762 -1.29695,3.388538 -1.838086,5.002908 -2.685657,8.011776 -1.228891,4.362702 -1.281823,4.540965 -2.393067,8.057562 -0.59171,1.872551 -1.225959,3.883127 -1.409437,4.467971 -0.367087,1.170114 -0.395575,1.524747 -0.205304,2.557058 0.126946,0.688479 0.123605,0.704978 -0.296394,1.539112 -0.233477,0.463744 -0.542009,1.235332 -0.685473,1.714647 -0.143464,0.479315 -0.342031,1.028487 -0.441268,1.22041 -0.107088,0.207513 -0.172417,0.6877 -0.185854,1.09584 -0.217794,0.701322 -0.178541,0.962193 -0.586866,1.603958 -0.02969,0.152187 -0.50914,0.572743 -0.797832,0.564651 -0.3901,-0.04157 -2.102891,0.546797 -1.981698,0.282864 0.382491,-0.653049 0.191069,-1.422429 0.165179,-2.149957 C 62.478731,80.459824 62.302398,79.585602 61.32879,76.346579 60.530124,73.689263 59.738436,71.471025 59.223802,70.448681 59.017051,70.03811 58.366303,68.991175 57.777598,68.122205 56.33468,65.992403 55.797144,65.099139 55.53206,64.390597 55.338653,63.873421 55.246598,63.770175 54.837011,63.609228 54.21013,63.362982 54.141534,63.4756 54.651157,63.914252 c 0.228837,0.197045 0.706055,0.840332 1.060372,1.429519 0.651398,1.083163 0.807316,1.322357 2.345407,3.597572 0.846271,1.251887 1.4849,2.580016 1.856441,3.860911 0.105788,0.364488 0.285462,0.866983 0.399175,1.116644 0.380115,0.833651 1.259756,3.615148 1.59711,5.050161 0.268035,1.139695 0.34721,1.788791 0.403259,3.301531 0.06644,1.791408 0.05809,1.89896 -0.168519,2.212985 -0.13103,0.181511 -0.26978,0.483287 -0.308105,0.670532 -0.06644,0.323862 -0.06125,0.329727 0.108016,0.120265 0.09781,-0.121192 0.177984,-0.267051 0.177984,-0.324232 l -1.8e-5,-1.9e-5 c 0,-0.05716 0.07312,-0.07591 0.16258,-0.04157 0.402034,-0.196451 0.512481,-0.206993 1.331841,-0.253206 0.535272,0.08686 1.318645,0.0019 1.759765,-0.910839 z m 6.678172,-0.332436 c 1.579813,-0.349009 4.037355,-1.199791 5.298281,-1.834281 1.176777,-0.592119 2.838845,-1.571832 2.937544,-1.731573 0.04157,-0.06718 -0.198344,0.03768 -0.532803,0.233329 -2.57146,1.503181 -5.494658,2.661529 -8.155203,3.231599 -0.780237,0.16722 -1.597333,0.350457 -1.815814,0.407249 -0.87669,0.227965 0.991795,-0.02431 2.267995,-0.306342 z m -36.60325,-4.885056 c -0.612181,-2.098232 -3.428496,-4.985592 -3.707499,-5.408412 -0.489523,-0.741931 -1.093687,-1.387055 -0.832148,-0.888587 0.05976,0.113769 0.252371,0.528869 0.507804,0.868487 2.207288,2.935354 1.254281,0.727751 3.388222,5.455479 1.528478,3.386366 0.298676,6.845355 0.432471,6.333728 0.366975,-1.403443 0.805311,-4.324191 0.211113,-6.360695 z m 0.619569,-2.597053 c -0.32865,-1.071249 -1.332547,-2.985688 -2.117479,-4.038042 -0.357473,-0.479334 -0.666208,-0.855292 -0.686048,-0.83547 -0.02023,0.01967 0.278502,0.514151 0.662997,1.098475 0.792301,1.204171 1.515765,2.603401 1.975666,3.821008 0.172232,0.456097 0.33394,0.808596 0.359236,0.7833 0.02617,-0.02524 -0.06217,-0.398471 -0.19428,-0.829271 z m 29.021105,-1.815369 c -0.339396,-0.955085 -1.451679,-3.163171 -1.928321,-3.828173 -0.476216,-0.664389 -1.094207,-1.331655 -1.094207,-1.181435 0,0.03823 0.340361,0.570571 0.756296,1.183032 0.415972,0.61246 1.112227,1.843003 1.547222,2.73456 0.772461,1.583339 1.035689,1.98309 0.71901,1.092016 z M 34.539044,72.492349 c -0.502384,-0.705554 -2.189136,-1.829715 -3.327254,-2.217514 -0.804457,-0.274103 -0.882982,-0.122306 -0.08686,0.168148 0.802935,0.292756 2.492972,1.387742 3.073232,1.991164 0.479073,0.49819 0.678438,0.532283 0.340917,0.05828 z M 62.471103,68.71245 c -0.555706,-0.899185 -2.184386,-1.961395 -3.839327,-2.503978 -0.773017,-0.253448 -1.051557,-0.164994 -0.309738,0.09836 0.311074,0.110429 1.050759,0.433102 1.643732,0.717024 0.870454,0.416751 1.225681,0.66773 1.844173,1.30287 0.421317,0.432675 0.770066,0.846531 0.774966,0.919692 0.0056,0.09261 0.02617,0.09001 0.06626,-0.0093 0.03136,-0.07795 -0.04974,-0.314285 -0.180026,-0.525286 z M 54.164121,63.619937 C 54.023255,63.417083 53.263582,62.357397 52.476125,61.265083 50.465326,58.475885 49.926974,57.615935 48.402338,54.758085 45.402972,49.13585 44.818704,47.98979 44.079019,46.277625 43.84814,45.74312 43.394994,44.914328 43.072135,44.435852 42.675298,43.847773 42.462978,43.404632 42.416858,43.068184 l -0.0683,-0.497724 0.72261,-0.13077 c 2.06657,-0.374013 3.412442,-0.443944 4.413202,-0.229331 0.653123,0.140068 0.77363,0.100072 0.505743,-0.167795 -0.269501,-0.269524 -3.132492,-0.251751 -4.565147,0.02845 l -1.049775,0.205228 4.45e-4,-0.634239 c 3.71e-4,-0.34883 0.04788,-0.923366 0.105974,-1.27675 0.05772,-0.353387 0.141423,-1.681178 0.185223,-2.950663 l 0.08018,-2.308136 -0.412946,-0.819952 c -0.249754,-0.495729 -0.938345,-2.366713 -1.02112,-2.60295 -0.218963,-0.625233 0.387613,1.568889 -0.117295,-0.285032 -0.57729,-2.119889 -1.727379,-2.407454 -2.671996,-3.131582 -0.627326,-0.480908 -0.799112,-0.58623 -1.040347,-0.465809 -1.157884,0.57795 -1.704625,1.386548 -0.433009,3.956538 0.633098,1.279526 0.067,0.7257 -0.394202,-1.601466 -0.202409,-1.082707 -0.0167,-1.745521 0.635492,-1.90097 0.464264,-0.110317 0.556114,-0.0433 1.164176,0.431014 1.2347,0.963162 1.898904,1.509714 2.471295,2.783575 l 0.767152,1.707366 -0.175943,-0.382036 c -0.2422,-0.525444 -0.321189,-0.381265 -0.12342,0.225063 0.08908,0.273587 0.1966,0.701717 0.238711,0.951388 0.04213,0.249659 0.213155,0.653883 0.380598,0.898249 l 0.304188,0.444295 -0.0037,2.336132 c -0.0019,1.360877 -0.06774,2.760625 -0.157012,3.352963 -0.08426,0.559256 -0.15924,1.380144 -0.166478,1.824192 l -0.01485,0.807367 0.65563,0.802416 c 0.36059,0.441327 0.785916,1.123029 0.945155,1.514883 0.480874,1.183447 3.047398,6.149969 5.18622,10.035973 1.393495,2.531835 5.220628,7.979909 5.619172,7.9991 0.02023,0.0014 -0.07925,-0.164251 -0.220114,-0.367105 z m 1.529647,-0.661606 c 0.597947,-0.84499 1.553533,-1.791018 1.923013,-1.903804 0.533453,-0.162766 1.009353,-0.230081 2.464243,-0.348137 1.277517,-0.103747 3.403886,-0.64854 3.686564,-0.944655 0.07813,-0.08166 0.04844,-0.09595 -0.09373,-0.04566 -1.100424,0.388708 -2.37963,0.668046 -3.481019,0.760174 -0.717803,0.06013 -1.585975,0.158498 -1.929249,0.218649 -1.325809,0.232493 -1.380021,0.237467 -1.307083,0.119337 0.03953,-0.06422 0.01485,-0.116553 -0.05401,-0.116553 -0.06941,0 -0.205322,0.189788 -0.302165,0.421743 -0.09707,0.231956 -0.393942,0.729886 -0.660065,1.106493 -0.266012,0.376626 -0.543493,0.799669 -0.616376,0.940108 -0.217516,0.418959 0.02041,0.284886 0.369851,-0.207643 z m 1.911488,-5.969759 c -0.229134,-2.252536 0.0592,-2.974311 1.834893,-4.590166 0.660455,-0.601046 1.776617,-1.530519 2.480408,-2.065475 0.703772,-0.534975 1.458342,-1.131047 1.676786,-1.324621 0.374621,-0.331898 0.37785,-0.340565 0.05661,-0.152373 -0.726526,0.425975 -3.009926,2.178688 -4.219832,3.239134 -0.698056,0.611811 -1.312631,1.112376 -1.365748,1.112376 -0.154786,0 -0.436388,0.563297 -0.70767,1.416064 -0.196025,0.615986 -0.235241,0.931069 -0.176871,1.418569 0.09966,0.832426 0.405727,2.189507 0.477552,2.117682 0.03137,-0.03137 0.0056,-0.55847 -0.05642,-1.171246 z M 75.56897,53.365258 c 0.685937,-0.804569 1.759616,-2.050145 2.385977,-2.767949 1.594846,-1.827636 2.135667,-2.496884 2.070487,-2.562076 -0.09577,-0.09597 -6.211478,7.067463 -6.208026,7.271783 0.0014,0.06236 0.115069,-0.01967 0.253225,-0.182624 C 74.2089,54.96144 74.883126,54.1699 75.569026,53.365351 Z M 25.857478,52.724365 c -0.611885,-0.759469 -2.233215,-3.209792 -2.284532,-3.158457 -0.02914,0.02821 0.09372,0.333067 0.308643,0.653662 0.802063,1.19619 1.308085,2.06516 2.12275,2.904119 0.277036,0.289137 0.493921,0.228039 0.873999,0.113583 l 0.05772,0.06069 c -0.170376,0.648559 -0.268629,1.443235 -0.304412,2.419923 -0.08426,2.290025 0.05141,3.086094 1.291493,7.589772 0.146062,0.530558 0.441175,1.630443 0.655722,2.444217 0.44795,1.699113 0.82838,2.776189 0.980549,2.776189 0.05772,0 0.105417,-0.126204 0.105417,-0.280544 0,-0.154228 0.22739,-0.76062 0.505205,-1.347393 0.3847,-0.812308 0.594569,-1.119986 0.879549,-1.289396 0.205898,-0.122306 0.501957,-0.336538 0.657986,-0.4759 0.155899,-0.139381 0.947624,-0.546333 1.75906,-0.904344 2.041329,-0.900669 3.801818,-1.822254 3.801818,-1.990235 0,-0.02376 -0.625582,0.271357 -1.390229,0.655778 -1.524209,0.766317 -4.080153,1.901781 -4.141919,1.840015 -0.02023,-0.02153 0.0056,-0.747368 0.06273,-1.613182 0.11414,-1.769472 0.210834,-2.043706 1.093297,-3.105953 0.834449,-1.004341 0.907981,-1.22852 0.912008,-2.780791 0.0037,-1.47627 0.07758,-1.724465 0.73499,-2.473188 0.182067,-0.207197 0.546797,-0.822757 0.810841,-1.367883 0.511775,-1.056717 1.064845,-1.663052 1.516934,-1.663052 0.149217,0 0.343052,-0.07145 0.430318,-0.158683 0.135855,-0.135855 0.250051,0.0074 0.796124,0.993002 0.806498,1.457154 1.73998,3.420422 2.355243,4.953503 0.263116,0.655388 0.837734,1.957645 1.277109,2.893911 1.456077,3.102648 1.642544,3.509563 2.112486,4.610024 0.256417,0.600545 0.466268,1.149532 0.466268,1.219983 0,0.07034 0.05104,0.12806 0.113583,0.12806 0.06236,0 0.113584,0.09131 0.113584,0.202817 0,0.214807 -0.717321,1.664351 -1.247488,2.520867 -0.173902,0.280878 -0.370205,0.689426 -0.436332,0.907889 -0.702937,2.322337 -1.416434,3.939288 -2.321595,5.261199 -0.346504,0.506059 -0.540765,0.937751 -0.633024,1.406672 -0.09001,0.457267 -0.307009,0.948311 -0.669604,1.514967 -0.533676,0.833892 -0.536608,0.843914 -0.551827,1.871065 -0.0167,1.240548 -0.202984,1.72647 -1.036653,2.727953 -0.647853,0.778307 -1.128189,1.113304 -1.756499,1.22505 -0.356785,0.06347 -0.582171,0.252854 -1.400603,1.177056 -1.179079,1.331358 -2.717485,2.748053 -3.396073,3.127332 -1.380633,0.771644 -2.954674,0.997661 -3.913805,0.561979 C 26.048528,88.367983 25.495142,87.63112 25.0118,86.00502 24.87279,85.536896 24.555573,84.694244 24.307192,84.132507 22.544421,80.145855 22.180378,79.147805 22.175256,78.287911 22.173556,78.007033 22.096566,77.087787 22.004138,76.245153 21.911713,75.4025 21.73436,73.283146 21.610068,71.535445 21.48572,69.787744 21.357994,68.153533 21.326332,67.903854 21.240958,67.228756 21.058,63.55702 20.9843,61.037898 20.899113,58.127283 20.858839,57.852048 20.360166,56.771724 19.87868,55.72889 19.752142,55.222794 19.559997,53.57084 l -0.135855,-1.168518 -0.695848,-0.828454 c -2.637809,-3.140571 -3.978911,-5.087188 -4.397611,-6.383254 -0.134185,-0.4155 -0.497689,-1.296868 -0.807705,-1.958614 -1.172806,-2.503599 -1.999757,-4.704284 -2.193851,-5.838329 -0.143464,-0.837621 -0.233774,-0.140031 -0.1327,1.025165 0.0696,0.805665 0.166107,1.222073 0.372599,1.609825 0.153115,0.287673 0.278502,0.703097 0.278502,0.923172 0,0.426495 -0.472374,1.249942 -0.713405,1.243623 -0.07925,-0.002 -0.05345,-0.06763 0.06069,-0.154377 0.26397,-0.200436 0.250032,-0.615543 -0.03489,-1.03363 -0.923553,-1.355235 -1.1872074,-2.57938 -1.094485,-5.081146 0.0657,-1.768051 -0.01113,-2.13925 -0.2581609,-1.226763 -0.064401,0.239233 -0.4035369,0.862676 -0.7536228,1.385418 -0.8988316,1.342086 -1.087989,1.818561 -1.10614,2.786141 C 7.9272825,39.945645 7.7543832,39.64 7.6762667,38.392446 7.618547,37.46644 7.624486,37.438005 8.048995,36.675691 9.1208744,34.749948 9.3174555,34.180532 9.413519,32.7229 c 0.086858,-1.317395 0.2500322,-2.163874 0.5200157,-2.695313 0.2241973,-0.441294 0.097251,-0.593476 -0.2363725,-0.283725 -0.1237911,0.114883 -0.135298,0.11119 -0.060689,-0.01917 0.1794694,-0.314155 -0.4098843,0.01021 -2.8834992,1.587068 -0.58618,0.373673 -1.0817158,0.663448 -1.1012403,0.643935 -0.02023,-0.01945 0.7029557,-0.769556 1.6054434,-1.66678 0.9024693,-0.897225 1.6184536,-1.653724 1.5910785,-1.681107 -0.026169,-0.0273 -0.3723943,0.02817 -0.7666329,0.123402 -0.3942759,0.09525 -0.9466592,0.203283 -1.2275371,0.240077 -0.5029411,0.06587 -0.4996375,0.06264 0.2186854,-0.211589 1.3399327,-0.511511 3.788808,-2.342723 3.581518,-2.678159 -0.05809,-0.09376 -0.17019,-0.03558 -0.363727,0.188791 -0.153858,0.17843 -0.09632,0.06223 0.127688,-0.258256 0.463317,-0.662086 0.521445,-0.85741 0.161096,-0.541444 -0.363931,0.319209 -0.145877,-0.01837 0.495035,-0.766306 l 0.5501,-0.642035 -0.484456,0.05599 c -1.4256023,0.16477 -2.2485816,0.603895 -2.7337057,1.458659 -0.2613534,0.460559 -0.3071209,0.501467 -0.2497352,0.223377 0.1783558,-0.863405 1.289414,-2.01176 2.2990819,-2.37628 0.234647,-0.08474 0.572075,-0.210918 0.749596,-0.280355 L 11.52801,23.017423 11.179,22.619931 c -0.68241,-0.77724 -1.000778,-1.750029 -0.86214,-2.634332 0.0464,-0.297288 0.09985,-0.489456 0.118224,-0.427037 0.0167,0.06242 0.116553,0.411063 0.217794,0.774762 0.29064,1.043413 1.51686,2.178519 2.09608,1.940301 0.14699,-0.06043 0.138824,-0.08638 -0.04881,-0.156177 -0.184666,-0.06874 -0.149589,-0.0979 0.197175,-0.162951 0.657726,-0.123402 0.712384,-0.369791 0.283717,-1.279519 -0.317829,-0.674725 -0.365211,-0.894412 -0.362929,-1.683858 0.0037,-1.149388 0.34385,-2.198012 1.004416,-3.092671 0.806851,-1.092798 0.873962,-1.008548 0.220987,0.277335 l -0.622909,1.226512 0.04974,0.964638 c 0.05345,1.039957 0.337299,1.943432 0.545127,1.735582 0.06626,-0.06622 0.185872,-0.675323 0.266309,-1.353565 0.153671,-1.29969 0.567676,-2.540429 1.159758,-3.475603 0.167591,-0.264674 0.532877,-0.966408 0.811788,-1.559379 0.27878,-0.592969 0.529889,-1.012827 0.557747,-0.93302 0.0696,0.199363 -0.1765,1.183059 -0.487556,1.94844 -0.141793,0.348961 -0.344481,1.144192 -0.450418,1.767179 -0.105974,0.622983 -0.270076,1.326329 -0.364395,1.562987 -0.09447,0.236649 -0.139938,0.46221 -0.100777,0.501232 0.08779,0.08767 0.02041,0.173363 0.840629,-1.05712 1.571053,-2.354385 3.906474,-3.67411 5.947711,-3.36101 l 0.715985,0.109835 -0.79438,0.01559 c -0.869062,0.01745 -1.642562,0.191028 -2.459491,0.552385 -0.875707,0.387372 -2.41287,1.616984 -2.021397,1.616984 0.08277,0 0.231158,-0.06906 0.329652,-0.15345 0.456469,-0.390914 3.249324,-1.370164 4.272299,-1.497977 0.391492,-0.0489 0.965905,-0.236881 1.393922,-0.456154 0.400438,-0.205141 0.95889,-0.440437 1.241067,-0.522909 0.417865,-0.12214 0.62638,-0.290114 1.124365,-0.90577 0.60615,-0.749385 1.459845,-1.476225 2.157771,-1.837135 0.199514,-0.103116 0.384848,-0.187485 0.412112,-0.187485 0.02617,0 -0.319667,0.370253 -0.77092,0.822781 -0.706464,0.70843 -1.87758,2.412035 -1.87758,2.73129 0,0.179005 0.0605,0.256862 0.501994,-0.02875 0.614057,-0.624917 1.381933,-0.993119 2.108403,-1.468761 1.060874,-0.709639 1.594846,-0.985665 2.414875,-1.248342 0.93801,-0.300467 2.990104,-0.634713 2.237873,-0.364505 -0.940813,0.337963 -2.631889,1.088648 -3.276717,1.454574 l -0.752064,0.426776 1.191606,0.07897 c 1.607652,0.106512 3.034128,0.497991 3.596552,0.609036 2.61101,0.515515 -1.976038,0.190388 -3.067813,0.130565 -0.660659,-0.02953 -0.766132,0.21481 -0.552922,0.212023 0.259609,-0.0035 0.362818,0.05234 0.584956,0.05635 0.541711,0.0098 2.763735,0.42395 2.342622,0.436673 -0.454111,0.01373 -0.326589,0.10074 0.339656,0.231799 1.622239,0.415202 2.642208,0.655468 3.867128,1.229063 0.98582,0.461632 3.026054,1.800724 2.7526,1.757176 -0.820214,-0.130584 -1.068334,-0.621456 -2.063192,-0.514071 l 0.534696,0.494353 c 0.294092,0.271905 0.587832,1.052723 0.623057,1.259504 0.0683,0.401217 0.02042,0.0093 -0.654051,-0.457309 -0.521334,-0.361173 -0.600991,-0.229301 -0.170561,0.282242 0.193129,0.229593 0.351274,0.460217 0.351274,0.512475 1.622054,1.772877 -3.258548,0.234036 -0.541638,0.328364 1.00887,0.03502 2.940514,1.085404 3.423169,1.812648 0.294297,0.44346 -4.678898,-0.994906 -3.380445,-0.990146 1.13461,0.0041 2.652917,0.45931 4.348448,2.029862 0.514671,0.476731 -1.706017,-0.565902 -2.469718,-0.234355 0.693083,0.181622 2.978171,0.941227 3.204132,1.603548 -0.772758,0.01169 -2.258289,-0.647739 -1.645848,0.193759 0.277334,0.381033 0.01485,0.09734 0.454038,0.577683 0.572668,0.624021 1.539724,1.107432 2.371482,0.25689 0.285759,-0.292099 -0.248584,1.600818 -1.598892,1.511379 -0.404038,-0.02673 -0.345353,-0.219864 -0.251201,0.07693 0.05308,0.167684 1.928748,2.234206 1.952671,2.549303 -0.06236,-0.37837 -2.073048,-2.039974 -0.788589,-1.612681 0.141423,0.04699 0.173345,0.09551 0.08519,0.128505 -0.257883,0.09636 -0.15627,0.565791 0.170189,0.785153 0.250905,0.168687 0.587609,0.218034 1.720141,0.252186 1.474878,0.04447 3.592951,-0.06889 3.475841,-0.186003 -0.03749,-0.03755 -1.075202,-0.07338 -2.305857,-0.07956 -2.381634,-0.01188 -2.861747,-0.09719 -2.861747,-0.507894 0,-0.12639 0.05494,-0.229796 0.121935,-0.229796 0.067,0 0.631799,-0.395786 1.254801,-0.879522 1.054044,-0.818449 1.454091,-1.115149 1.75429,-1.220353 0.132328,-0.04644 0.24567,-0.05555 0.386963,-0.05579 0.186429,-2.99e-4 0.334106,0.0084 0.728939,0.08181 0.482117,0.08968 1.332824,0.275971 3.072842,0.660506 1.061096,0.234502 2.131343,0.456927 2.378368,0.494282 0.406711,0.06149 0.461479,0.110762 0.580427,0.522031 0.07238,0.249774 0.167591,1.066876 0.211707,1.815794 0.04417,0.748916 0.1752,2.000031 0.290844,2.780255 0.115811,0.78022 0.242182,2.133553 0.280525,3.007405 0.06681,1.514193 0.258737,3.186853 0.355004,3.090674 0.105975,-0.105881 -0.20909,-4.910356 -0.40337,-6.154826 -0.117109,-0.749013 -0.247118,-1.898068 -0.289229,-2.553452 -0.07145,-1.113687 -0.186726,-1.886158 -0.341048,-2.288314 -0.05345,-0.13901 0.130102,-0.195615 0.989161,-0.305312 3.930193,-0.501816 3.840737,-0.495517 5.193308,-0.36587 2.62081,0.251227 8.881618,1.622473 10.144993,2.221977 0.206474,0.09801 0.779699,0.540559 1.273732,0.983459 0.494032,0.442894 1.25571,1.088785 1.692654,1.435307 1.441527,1.143279 2.348747,1.98953 3.672422,3.42566 4.492506,4.874138 8.262587,12.191469 10.859511,21.077211 0.286037,0.978859 0.537647,1.808038 0.559027,1.842614 0.05364,0.08704 0.591581,2.096599 0.927543,3.465893 0.153115,0.624171 0.37477,1.51788 0.49253,1.986022 0.211113,0.839405 0.664779,3.170056 1.590447,8.171053 0.352684,1.905307 0.645682,3.08639 1.15432,4.65297 1.108961,3.415597 1.230228,3.895302 1.224865,4.845079 -0.0093,1.402237 -0.185854,2.204003 -0.726396,3.271539 l -0.518253,1.023681 0.0019,2.551156 c 0.0014,1.536365 0.06885,3.092868 0.169262,3.913007 0.395872,3.231043 0.342179,4.804304 -0.34283,10.043586 -0.534213,4.08635 -0.625061,4.71212 -0.716448,4.93669 -0.05085,0.1249 -0.263098,0.94194 -0.471576,1.8158 -0.208514,0.87385 -0.47139,1.79307 -0.583971,2.04275 -0.325587,0.72195 -1.06878,2.73677 -1.465116,3.97205 -0.200386,0.62417 -1.349565,4.07134 -2.553977,7.66037 -1.888196,5.62647 -2.838196,8.3756 -4.078631,11.80265 -0.146991,0.4057 -0.684824,1.96332 -1.195504,3.46134 -0.890684,2.61274 -1.856775,5.29997 -2.468418,6.86598 -0.414933,1.06235 -0.706111,2.05266 -0.707095,2.40489 -4.45e-4,0.16796 -0.05048,0.33609 -0.11117,0.37361 -0.06069,0.0375 -0.165736,0.28313 -0.233775,0.54578 -0.06774,0.26263 -0.248009,0.73794 -0.400289,1.05625 -0.152372,0.31832 -0.277054,0.62072 -0.277054,0.672 0,0.0512 -0.07053,0.1739 -0.156827,0.2724 -0.185873,0.21235 -0.751043,1.82325 -0.751043,2.14086 0,0.12175 0.281973,0.64509 0.62675,1.16306 0.899277,1.35133 0.916278,1.56417 0.191069,2.39378 -0.445332,0.50945 -0.387687,1.00419 0.166107,1.42667 0.534529,0.40772 1.38171,2.20356 1.424823,3.0204 l 0.031,0.58868 -8.406108,0.0291 -8.406089,0.0291 -0.806721,-1.95842 c -1.036783,-2.51699 -1.177352,-2.93792 -1.279169,-3.83092 -0.109686,-0.96238 0.169633,-2.66391 0.925576,-5.63653 0.66901,-2.63098 1.531762,-6.35791 2.320648,-10.02467 0.154414,-0.71781 0.667841,-2.83718 1.140902,-4.70971 1.115289,-4.41452 1.341491,-5.39098 1.630053,-7.03618 0.341511,-1.94731 0.595311,-3.10941 1.357898,-6.21814 0.370705,-1.51103 0.705684,-2.95161 0.744473,-3.20129 l 0.07053,-0.45395 -0.210556,0.25957 c -0.115811,0.14273 -0.346671,0.34888 -0.513038,0.45805 -0.166478,0.10913 -0.649894,0.58906 -1.074478,1.06644 -0.424527,0.47739 -1.589389,1.72944 -2.588608,2.78233 -0.999201,1.0529 -2.275865,2.47341 -2.837046,3.15672 -0.561161,0.6833 -1.881755,2.26374 -2.93463,3.5121 -1.052893,1.24834 -2.406281,2.90809 -3.007531,3.68833 -0.601288,0.78022 -1.476141,1.87821 -1.944134,2.43997 -2.086949,2.50503 -4.130227,5.03973 -4.482744,5.56085 -0.211132,0.3121 -0.721738,1.02706 -1.134759,1.58882 -0.413002,0.56175 -0.956106,1.32779 -1.206936,1.7023 l -0.456041,0.68093 0.06848,0.9845 0.06848,0.98452 -0.62753,0.64273 c -0.345149,0.35352 -0.627531,0.68169 -0.627531,0.72928 0,0.0477 0.255266,0.32172 0.567454,0.60921 0.367476,0.33852 0.566693,0.61439 0.565319,0.78293 -0.0037,0.3813 -0.748834,1.94433 -0.963641,2.01968 -0.165178,0.0579 -0.162951,0.0824 0.0232,0.24035 0.113213,0.0967 0.384755,0.28314 0.603218,0.41434 0.595163,0.35743 1.237373,1.0672 1.363466,1.50691 0.06162,0.21449 0.11247,0.79887 0.113027,1.29864 0.0014,0.91568 0.490023,2.97698 0.968986,4.08627 0.10783,0.24967 0.259924,0.68375 0.337855,0.96463 0.07813,0.28088 0.178541,0.60008 0.223325,0.7093 0.07721,0.18803 -0.341752,0.19861 -7.873081,0.19861 h -7.955096 l -0.180397,-0.42535 c -0.267757,-0.63228 -1.112098,-3.26369 -1.647573,-5.13529 -0.259034,-0.90505 -0.689816,-2.38607 -0.957517,-3.29112 -0.449378,-1.51912 -0.583155,-2.0352 -0.968559,-3.7355 -0.156456,-0.69104 -0.08482,-2.97276 0.115068,-3.65531 0.143464,-0.48927 2.157159,-4.22559 4.029561,-7.47599 0.737086,-1.27954 1.42731,-2.47968 1.533804,-2.66693 0.521055,-0.91626 2.698536,-4.62084 3.068388,-5.2204 0.231157,-0.37451 1.022604,-1.65123 1.759004,-2.83718 0.736399,-1.18594 1.52226,-2.45155 1.746309,-2.81245 0.224197,-0.36093 0.57072,-0.91036 0.770345,-1.22097 0.199513,-0.31061 0.705888,-1.1133 1.125033,-1.78374 0.854902,-1.3675 2.720455,-4.09684 3.629661,-5.31033 0.329745,-0.4401 0.981347,-1.44132 1.448005,-2.22496 1.622685,-2.72489 2.972695,-4.73465 3.868687,-5.75933 0.880347,-1.00677 0.905884,-1.05282 1.09133,-1.9678 0.229134,-1.12997 0.730126,-2.45566 1.025963,-2.71412 0.118409,-0.10356 0.215772,-0.23383 0.215772,-0.28936 0,-0.0555 0.389654,-0.0984 0.865944,-0.0952 l 0.865963,0.006 0.254394,-0.62419 c 0.139937,-0.3433 0.363838,-1.185933 0.497781,-1.872538 0.279078,-1.430818 0.656947,-2.302312 1.115865,-2.573409 0.175387,-0.103561 0.458603,-0.317829 0.629275,-0.476011 0.288376,-0.267348 0.310332,-0.351812 0.310332,-1.198622 0,-1.292049 0.1966,-1.717969 1.064344,-2.304483 0.851672,-0.575694 0.894136,-0.630425 1.256007,-1.618528 0.406785,-1.110687 0.385293,-1.292216 -0.220133,-1.859596 -0.679144,-0.636531 -0.737791,-0.92706 -0.443736,-2.197562 0.05512,-0.238414 0.03025,-0.312095 -0.105789,-0.312095 -0.09781,0 -0.221859,-0.07869 -0.275588,-0.174829 -0.08333,-0.149032 -0.194855,-0.116368 -0.756036,0.22158 -1.237225,0.74503 -2.78261,0.837939 -3.771195,0.226759 -0.889645,-0.550045 -1.316919,-1.201739 -2.573316,-3.924923 -0.620069,-1.343997 -1.028747,-1.966405 -2.290378,-3.488108 -0.642062,-0.774391 -1.166959,-1.55641 -1.523485,-2.26974 -0.996454,-1.993632 -3.148546,-6.624832 -3.986391,-8.57845 -0.455058,-1.061115 -0.888921,-2.005881 -0.964161,-2.099513 -0.07517,-0.09354 -0.17483,-0.297916 -0.221581,-0.453945 -0.180954,-0.606112 -0.919135,-2.312946 -1.98773,-4.596215 -0.613443,-1.310795 -1.379872,-3.045709 -1.703177,-3.855381 -0.5215,-1.30608 -1.608431,-3.550487 -3.244182,-6.698921 -0.291847,-0.561756 -0.61981,-1.200125 -0.728772,-1.418588 -0.228838,-0.458602 -0.847329,-0.997413 -1.207976,-1.052177 -0.258755,-0.03927 -5.773512,-5.530061 -5.554214,-5.530061 0.525156,0 -2.030937,-1.549762 -4.87947,-2.95842 -1.566005,-0.774413 -2.113878,-0.995869 -2.296595,-0.928276 -0.196025,0.07255 0.14866,0.28567 1.88376,1.164955 1.322784,0.670313 2.505073,1.363477 3.134886,1.837942 0.556151,0.418966 1.068056,0.781121 1.137524,0.804797 0.06941,0.02351 -0.0412,0.184703 -0.245986,0.357799 -0.204729,0.173104 -0.52499,0.53661 -0.71153,0.807752 l -0.339192,0.492987 -0.4929,-0.307447 C 26.852633,43.756251 26.415262,43.454258 26.151626,43.254245 25.63187,42.859942 24.721717,42.550482 23.82103,42.46183 c -0.761065,-0.07489 -1.716187,0.406482 -2.023141,1.019694 -0.197491,0.394611 -0.197769,0.436689 -0.0056,1.046351 0.21141,0.670812 0.467455,0.951907 1.812084,1.98955 0.735267,0.567419 1.417975,0.993065 2.032736,1.274825 0.01485,0.0072 -0.66361,-0.90579 -0.64815,-0.898153 0.0056,0.0028 0.665707,-1.526003 0.856535,-1.882037 0.0056,-0.0097 -1.140846,-2.41012 -1.136466,-2.41808 0.0019,-0.0041 0.04566,-0.01745 0.07554,0.03693 0.229709,0.41638 1.14144,2.365915 1.14376,2.367702 8.16e-4,6.22e-4 0.876281,0.875562 1.054155,1.057106 0.0093,0.0093 1.110297,-0.184814 1.112227,-0.178745 0.0019,0.0076 -1.095821,0.214201 -1.095821,0.214201 0,0 -1.101686,-1.015208 -1.106251,-1.004678 -0.164436,0.380758 -0.766076,1.852358 -0.756871,1.862473 0.205879,0.226165 0.681835,0.923066 0.733282,0.944176 1.3942,0.572006 2.407543,0.358232 2.844933,-0.668326 0.305283,-0.716431 0.07498,-1.928273 -0.484122,-2.545922 -0.157013,-0.173605 -0.136783,-0.248149 0.216644,-0.796453 0.756258,-1.173265 0.667488,-1.179857 2.107011,0.156363 0.692098,0.642391 2.107364,2.048934 3.145038,3.125638 1.037693,1.076709 1.976446,1.957649 2.086132,1.957649 0.257307,0 0.436684,0.209907 1.066942,1.248361 l 0.516601,0.851152 -0.417475,0.07164 c -0.312744,0.05364 -0.546073,0.216551 -0.929826,0.649207 -0.747257,0.842467 -2.252442,1.944932 -2.656332,1.945582 -0.412056,5.57e-4 -4.227144,-1.368254 -4.935723,-1.725189 -0.07925,-0.06366 -0.144578,-0.085 -0.205322,-0.09261 -0.0232,-0.107459 -0.116368,0.08853 -0.365546,0.318776 -0.188193,0.173902 -0.383549,0.265455 -0.538149,0.371466 -0.283736,0.194391 -0.653532,0.499267 -0.982293,0.323324 -0.189046,-0.0592 -0.222453,-0.0167 -0.408473,-0.26926 z m 31.416084,-2.038601 c 0.03508,-0.329523 0.2721,-1.228261 0.526902,-1.997196 0.25469,-0.768936 0.463001,-1.598194 0.463001,-1.842805 0,-0.244607 0.156456,-0.933359 0.347803,-1.530547 0.191384,-0.597187 0.328761,-1.142956 0.305488,-1.212803 -0.04213,-0.126259 -0.653291,1.481024 -0.653291,1.717942 0,0.06819 -0.04436,0.123995 -0.09911,0.123995 -0.118224,0 -0.04677,-4.611936 0.09985,-6.468761 0.134185,-1.698118 0.328038,-2.419508 1.024832,-3.816233 0.653402,-1.309703 1.782722,-2.77334 2.789458,-3.615235 0.374473,-0.313151 0.882091,-0.738029 1.128096,-0.944181 0.53078,-0.44485 0.342495,-0.368419 -0.517417,0.210048 -0.707243,0.475742 -2.274287,2.065172 -2.791835,2.83172 -0.885004,1.310729 -1.443921,2.452637 -1.690297,3.45346 -0.227965,0.92603 -0.261353,1.43337 -0.3316,5.058054 -0.07962,4.096821 -0.159797,4.971303 -0.641042,6.978238 -0.22739,0.948589 -0.289527,1.816816 -0.122306,1.713533 0.05345,-0.03304 0.126018,-0.329707 0.161281,-0.659248 z m -0.987081,-1.541358 c -0.09725,-0.612056 -0.213155,-2.029309 -0.257586,-3.149452 -0.05642,-1.422657 -0.105974,-1.899771 -0.164993,-1.582675 -0.178541,0.962038 -0.09892,2.928814 0.186448,4.596235 0.154785,0.905049 0.288951,1.671088 0.298101,1.702305 0.0093,0.03118 0.0386,-0.05809 0.0657,-0.198419 0.02617,-0.140309 -0.03044,-0.755924 -0.127874,-1.367976 z M 21.607172,48.69074 c 0,-0.04992 -0.05382,-0.144485 -0.119337,-0.2101 -0.08333,-0.08342 -0.03081,-0.177372 0.175387,-0.312342 0.921047,-0.603486 0.470183,-1.803147 -1.201721,-3.197641 -1.059742,-0.883913 -1.522223,-1.098792 -2.149178,-0.998545 -0.53852,0.08613 -0.677103,0.287557 -0.677103,0.984321 0,0.536404 0.275292,1.04936 0.947532,1.766463 0.503293,0.536734 1.840015,1.462275 2.238244,1.549741 0.183924,0.04042 0.386648,0.171396 0.450734,0.291158 0.116182,0.216791 0.335535,0.299844 0.335535,0.126965 z m 27.3505,-1.667712 c -0.08853,-0.393034 -0.0683,-0.470474 0.185594,-0.705768 0.229134,-0.212225 0.27067,-0.330888 0.210835,-0.602315 -0.113769,-0.518706 0.03025,-0.97023 0.357602,-1.11934 0.414413,-0.188821 1.820863,0.212487 3.192922,0.911061 0.595979,0.303412 1.103096,0.532131 1.126963,0.508256 0.09985,-0.09987 -1.108107,-0.8654 -1.896529,-1.201849 -0.720772,-0.30759 -1.863938,-0.637652 -2.492341,-0.719613 -0.251498,-0.03281 -0.560234,0.701512 -0.566358,1.34724 -0.0056,0.505643 -0.04714,0.605086 -0.351237,0.830106 -0.369165,0.272949 -0.37052,0.324203 -0.03081,1.148886 0.130473,0.316841 0.183738,0.361554 0.263117,0.220996 0.05716,-0.101093 0.05716,-0.364406 5.6e-5,-0.61767 z M 17.521637,45.966614 c 0,-0.0502 -0.175943,-0.261827 -0.391177,-0.470371 -0.215177,-0.20851 -0.596629,-0.793073 -0.847774,-1.298993 -0.251183,-0.50591 -0.899741,-1.481598 -1.441416,-2.168194 -1.967686,-2.494322 -2.634933,-3.785287 -2.73868,-5.298815 -0.09038,-1.31761 -0.294185,-1.270059 -0.236094,0.05506 0.04473,1.024106 0.07813,1.147767 0.589446,2.177497 0.298083,0.600448 0.879085,1.535986 1.29114,2.078971 2.342122,3.086485 2.224994,2.908579 2.479591,3.765915 0.105975,0.35642 0.302426,0.670527 0.562591,0.89898 0.379503,0.333201 0.732521,0.458456 0.732521,0.259911 z m 11.353877,-8.389122 c -0.13437,-0.587416 -0.293906,-0.777475 -1.245446,-1.483852 -0.356415,-0.264586 -1.173511,-0.916299 -1.815796,-1.44828 -1.290119,-1.068552 -3.203649,-2.432389 -3.65184,-2.602794 -0.697406,-0.265167 -0.286928,0.149032 1.155917,1.166076 0.855309,0.602946 1.938139,1.430597 2.406281,1.839214 0.468124,0.408626 1.267106,1.096706 1.775485,1.529067 0.508379,0.432355 1.037674,0.969473 1.176183,1.19359 0.138453,0.224105 0.267478,0.391947 0.286353,0.372968 0.02023,-0.01888 -0.02041,-0.273675 -0.08723,-0.565989 z m 5.169089,-4.245731 c -0.253799,-0.600055 -0.757984,-1.652349 -1.12043,-2.338447 -0.700358,-0.840685 -0.992167,-2.624233 -2.397596,-3.642864 -0.306843,-0.22236 1.794694,3.361077 2.684691,5.045526 0.335962,0.635886 0.713256,1.488621 1.002319,1.910604 0.385887,0.615014 0.304225,0.144003 -0.169076,-0.974819 z m -2.877281,2.000484 c 8.53e-4,-0.602598 -0.112099,-0.823612 -0.880681,-1.72551 -0.287782,-0.337818 -0.937936,-1.156289 -1.444459,-1.818841 -1.017389,-1.330829 -2.576007,-3.089312 -2.97457,-3.35596 -0.620088,-0.414916 -0.312967,0.08084 0.864738,1.395741 0.698186,0.77952 1.567656,1.829073 1.932144,2.332324 0.36447,0.503266 0.988678,1.3531 1.387074,1.888528 0.398377,0.535422 0.793618,1.177616 0.878286,1.427104 0.08482,0.249485 0.172602,0.441949 0.195449,0.427711 0.0232,-0.01429 0.04176,-0.271237 0.04213,-0.571097 z"
       id="path1"
       sodipodi:nodetypes="ssssssssscssssssscssssssscccccsssssssscsssccssscssscscsssscssssssssssssssssssscssssssscssssscsssscssssscssssssscsscssssssscsssssssscccssssssssssscsssssssccccssscscsasssssassssssssssssssssssssssssccsscssssscssssccsscsssssssssscssssccsscsssccccssscsscsssscccssscsssssccssscssssscccsssssssssssccscsssscssssssssssssssssssccsssssscssssssscccssssssssssscsccsssscsscssssscsssssssscsscsssssssssscscssssssssssssssssscsssssssascsssssssssccsssssscssscssssscsscscssssssssssssscsssscsccsssssssssscsssssssssscccsssssssscssssssssssscccssscsssscssssccsssssssssssssssssccssssssssssssssssssssssscsssssssscsssscssssssssscssssssssssccscccssccsssscsscsssssssscsssssscsssscsssscssscscssssscssssccsssssssscccsssssssscscsasscssssssssccs" /></g></svg>
